<?xml version="1.0" encoding="utf-8"?>
<!-- Generator: Adobe Illustrator 18.1.0, SVG Export Plug-In . SVG Version: 6.00 Build 0)  -->
<svg version="1.1" id="Camada_1" xmlns="http://www.w3.org/2000/svg" xmlns:xlink="http://www.w3.org/1999/xlink" x="0px" y="0px"
	 viewBox="0 0 26 16" enable-background="new 0 0 26 16" xml:space="preserve">
<g>
	<rect fill="#2A2D7C" width="26" height="16"/>
	<polygon fill="#FFFFFF" points="7.081,9.039 7.491,10.313 8.742,9.839 8.002,10.953 9.152,11.636 7.819,11.752 8.003,13.077 
		7.081,12.108 6.159,13.077 6.343,11.752 5.01,11.636 6.161,10.953 5.42,9.839 6.672,10.313 	"/>
	<polygon fill="#FFFFFF" points="20.743,10.79 20.939,11.397 21.534,11.171 21.182,11.702 21.73,12.027 21.095,12.082 
		21.182,12.713 20.743,12.252 20.305,12.713 20.392,12.082 19.757,12.027 20.305,11.702 19.953,11.171 20.548,11.397 	"/>
	<polygon fill="#FFFFFF" points="17.203,5.184 17.398,5.791 17.994,5.565 17.641,6.096 18.189,6.421 17.554,6.476 17.642,7.107 
		17.203,6.646 16.764,7.107 16.851,6.476 16.217,6.421 16.765,6.096 16.412,5.565 17.008,5.791 	"/>
	<polygon fill="#FFFFFF" points="20.743,1.349 20.939,1.955 21.534,1.73 21.182,2.26 21.73,2.585 21.095,2.641 21.182,3.272 
		20.743,2.81 20.305,3.272 20.392,2.641 19.757,2.585 20.305,2.26 19.953,1.73 20.548,1.955 	"/>
	<polygon fill="#FFFFFF" points="23.891,4.24 24.086,4.847 24.682,4.621 24.329,5.152 24.877,5.477 24.242,5.532 24.33,6.163 
		23.891,5.701 23.452,6.163 23.539,5.532 22.904,5.477 23.452,5.152 23.1,4.621 23.696,4.847 	"/>
	<polygon fill="#FFFFFF" points="22.16,7.081 22.314,7.459 22.721,7.489 22.409,7.752 22.507,8.149 22.16,7.934 21.813,8.149 
		21.91,7.752 21.599,7.489 22.006,7.459 	"/>
	<polygon fill="#FFFFFF" points="5.901,0 8.261,0 8.261,2.36 14.162,2.36 14.162,4.721 8.261,4.721 8.261,7.081 5.901,7.081 
		5.901,4.721 0,4.721 0,2.36 5.901,2.36 	"/>
	<polygon fill="#FFFFFF" points="0,0 1.583,0 14.162,6.289 14.162,7.081 12.579,7.081 0,0.792 	"/>
	<polygon fill="#FFFFFF" points="14.162,0 12.579,0 0,6.289 0,7.081 1.583,7.081 14.162,0.792 	"/>
	<polygon fill="#ED2224" points="6.373,0 7.789,0 7.789,2.832 14.162,2.832 14.162,4.249 7.789,4.249 7.789,7.081 6.373,7.081 
		6.373,4.249 0,4.249 0,2.832 6.373,2.832 	"/>
	<path fill="#ED2224" d="M0,0l4.721,2.36H3.665L0,0.528V0z M14.162,0h-1.056L8.386,2.36h1.056L14.162,0z"/>
	<path fill="#ED2224" d="M14.162,7.081l-4.721-2.36h1.056l3.665,1.833V7.081z M0,7.081h1.056l4.721-2.36H4.721L0,7.081z"/>
</g>
<g>
</g>
<g>
</g>
<g>
</g>
<g>
</g>
<g>
</g>
<g>
</g>
</svg>
