<?xml version="1.0" encoding="utf-8"?>
<!-- Generator: Adobe Illustrator 18.1.0, SVG Export Plug-In . SVG Version: 6.00 Build 0)  -->
<svg version="1.1" id="Camada_1" xmlns="http://www.w3.org/2000/svg" xmlns:xlink="http://www.w3.org/1999/xlink" x="0px" y="0px"
	 viewBox="0 0 26 16" enable-background="new 0 0 26 16" xml:space="preserve">
<g>
	<rect fill="#273375" width="26" height="16"/>
	<polygon fill="#FFFFFF" points="5.901,0 8.261,0 8.261,2.36 14.162,2.36 14.162,4.721 8.261,4.721 8.261,7.081 5.901,7.081 
		5.901,4.721 0,4.721 0,2.36 5.901,2.36 	"/>
	<polygon fill="#FFFFFF" points="0,0 1.583,0 14.162,6.289 14.162,7.081 12.579,7.081 0,0.792 	"/>
	<polygon fill="#FFFFFF" points="14.162,0 12.579,0 0,6.289 0,7.081 1.583,7.081 14.162,0.792 	"/>
	<polygon fill="#ED2224" points="6.373,0 7.789,0 7.789,2.832 14.162,2.832 14.162,4.249 7.789,4.249 7.789,7.081 6.373,7.081 
		6.373,4.249 0,4.249 0,2.832 6.373,2.832 	"/>
	<path fill="#ED2224" d="M0,0l4.721,2.36H3.665L0,0.528V0z M14.162,0h-1.056L8.386,2.36h1.056L14.162,0z"/>
	<path fill="#ED2224" d="M14.162,7.081l-4.721-2.36h1.056l3.665,1.833V7.081z M0,7.081h1.056l4.721-2.36H4.721L0,7.081z"/>
	<polygon fill="#FFFFFF" points="20.587,3.839 20.587,4.33 21.57,3.839 	"/>
	<polygon fill="#FFFFFF" points="20.775,4.416 20.486,4.019 21.57,3.839 	"/>
	<polygon fill="#FFFFFF" points="20.587,3.839 20.587,4.33 19.605,3.839 	"/>
	<polygon fill="#FFFFFF" points="20.4,4.416 20.688,4.019 19.605,3.839 	"/>
	<polygon fill="#FFFFFF" points="20.891,4.06 20.424,4.211 21.194,4.994 	"/>
	<polygon fill="#FFFFFF" points="20.4,4.416 20.688,4.019 21.194,4.994 	"/>
	<polygon fill="#FFFFFF" points="20.284,4.06 20.751,4.211 20.587,3.125 	"/>
	<polygon fill="#FFFFFF" points="20.891,4.06 20.424,4.211 20.587,3.125 	"/>
	<polygon fill="#FFFFFF" points="20.284,4.06 20.751,4.211 19.98,4.994 	"/>
	<polygon fill="#FFFFFF" points="20.775,4.416 20.486,4.019 19.98,4.994 	"/>
	<polygon fill="#CC202C" points="20.587,3.947 20.587,4.272 21.236,3.947 	"/>
	<polygon fill="#CC202C" points="20.711,4.329 20.521,4.066 21.236,3.947 	"/>
	<polygon fill="#CC202C" points="20.587,3.947 20.587,4.272 19.938,3.947 	"/>
	<polygon fill="#CC202C" points="20.463,4.329 20.654,4.066 19.938,3.947 	"/>
	<polygon fill="#CC202C" points="20.788,4.093 20.479,4.193 20.989,4.71 	"/>
	<polygon fill="#CC202C" points="20.463,4.329 20.654,4.066 20.989,4.71 	"/>
	<polygon fill="#CC202C" points="20.387,4.093 20.695,4.193 20.587,3.476 	"/>
	<polygon fill="#CC202C" points="20.788,4.093 20.479,4.193 20.587,3.476 	"/>
	<polygon fill="#CC202C" points="20.387,4.093 20.695,4.193 20.186,4.71 	"/>
	<polygon fill="#CC202C" points="20.711,4.329 20.521,4.066 20.186,4.71 	"/>
	<polygon fill="#FFFFFF" points="23.158,6.109 23.158,6.546 24.032,6.109 	"/>
	<polygon fill="#FFFFFF" points="23.325,6.623 23.068,6.269 24.032,6.109 	"/>
	<polygon fill="#FFFFFF" points="23.158,6.109 23.158,6.546 22.284,6.109 	"/>
	<polygon fill="#FFFFFF" points="22.991,6.623 23.248,6.269 22.284,6.109 	"/>
	<polygon fill="#FFFFFF" points="23.429,6.305 23.013,6.44 23.699,7.137 	"/>
	<polygon fill="#FFFFFF" points="22.991,6.623 23.248,6.269 23.699,7.137 	"/>
	<polygon fill="#FFFFFF" points="22.888,6.305 23.304,6.44 23.158,5.474 	"/>
	<polygon fill="#FFFFFF" points="23.428,6.305 23.013,6.44 23.158,5.474 	"/>
	<polygon fill="#FFFFFF" points="22.888,6.305 23.304,6.44 22.618,7.137 	"/>
	<polygon fill="#FFFFFF" points="23.325,6.623 23.068,6.269 22.618,7.137 	"/>
	<polygon fill="#CC202C" points="23.158,6.217 23.158,6.488 23.699,6.217 	"/>
	<polygon fill="#CC202C" points="23.262,6.535 23.103,6.317 23.699,6.217 	"/>
	<polygon fill="#CC202C" points="23.158,6.217 23.158,6.488 22.618,6.217 	"/>
	<polygon fill="#CC202C" points="23.055,6.535 23.214,6.317 22.618,6.217 	"/>
	<polygon fill="#CC202C" points="23.326,6.339 23.068,6.422 23.493,6.853 	"/>
	<polygon fill="#CC202C" points="23.055,6.535 23.214,6.317 23.493,6.853 	"/>
	<polygon fill="#CC202C" points="22.991,6.339 23.248,6.422 23.158,5.824 	"/>
	<polygon fill="#CC202C" points="23.326,6.339 23.068,6.422 23.158,5.824 	"/>
	<polygon fill="#CC202C" points="22.991,6.339 23.248,6.422 22.824,6.853 	"/>
	<polygon fill="#CC202C" points="23.262,6.535 23.103,6.317 22.824,6.853 	"/>
	<polygon fill="#FFFFFF" points="17.588,6.857 17.588,7.348 18.57,6.857 	"/>
	<polygon fill="#FFFFFF" points="17.775,7.434 17.487,7.037 18.57,6.857 	"/>
	<polygon fill="#FFFFFF" points="17.588,6.857 17.588,7.348 16.606,6.857 	"/>
	<polygon fill="#FFFFFF" points="17.4,7.434 17.689,7.037 16.606,6.857 	"/>
	<polygon fill="#FFFFFF" points="17.891,7.077 17.424,7.229 18.195,8.012 	"/>
	<polygon fill="#FFFFFF" points="17.4,7.434 17.689,7.037 18.195,8.012 	"/>
	<polygon fill="#FFFFFF" points="17.284,7.077 17.751,7.229 17.588,6.143 	"/>
	<polygon fill="#FFFFFF" points="17.891,7.077 17.424,7.229 17.588,6.143 	"/>
	<polygon fill="#FFFFFF" points="17.284,7.077 17.751,7.229 16.981,8.012 	"/>
	<polygon fill="#FFFFFF" points="17.775,7.434 17.487,7.037 16.981,8.012 	"/>
	<polygon fill="#CC202C" points="17.588,6.965 17.588,7.29 18.237,6.965 	"/>
	<polygon fill="#CC202C" points="17.712,7.347 17.521,7.084 18.237,6.965 	"/>
	<polygon fill="#CC202C" points="17.588,6.965 17.588,7.29 16.939,6.965 	"/>
	<polygon fill="#CC202C" points="17.464,7.347 17.655,7.084 16.939,6.965 	"/>
	<polygon fill="#CC202C" points="17.788,7.111 17.48,7.211 17.989,7.728 	"/>
	<polygon fill="#CC202C" points="17.464,7.347 17.655,7.084 17.989,7.728 	"/>
	<polygon fill="#CC202C" points="17.387,7.111 17.696,7.211 17.588,6.494 	"/>
	<polygon fill="#CC202C" points="17.788,7.111 17.48,7.211 17.588,6.494 	"/>
	<polygon fill="#CC202C" points="17.387,7.111 17.696,7.211 17.187,7.728 	"/>
	<polygon fill="#CC202C" points="17.712,7.347 17.521,7.084 17.187,7.728 	"/>
	<polygon fill="#FFFFFF" points="20.587,11.593 20.587,12.138 21.678,11.593 	"/>
	<polygon fill="#FFFFFF" points="20.796,12.234 20.475,11.793 21.678,11.593 	"/>
	<polygon fill="#FFFFFF" points="20.587,11.593 20.587,12.138 19.497,11.593 	"/>
	<polygon fill="#FFFFFF" points="20.379,12.234 20.7,11.793 19.497,11.593 	"/>
	<polygon fill="#FFFFFF" points="20.924,11.838 20.406,12.006 21.261,12.875 	"/>
	<polygon fill="#FFFFFF" points="20.379,12.234 20.7,11.793 21.261,12.875 	"/>
	<polygon fill="#FFFFFF" points="20.25,11.838 20.769,12.006 20.587,10.8 	"/>
	<polygon fill="#FFFFFF" points="20.924,11.838 20.406,12.006 20.587,10.8 	"/>
	<polygon fill="#FFFFFF" points="20.25,11.838 20.769,12.006 19.913,12.875 	"/>
	<polygon fill="#FFFFFF" points="20.796,12.234 20.475,11.793 19.913,12.875 	"/>
	<polygon fill="#CC202C" points="20.587,11.701 20.587,12.08 21.345,11.701 	"/>
	<polygon fill="#CC202C" points="20.732,12.146 20.509,11.84 21.345,11.701 	"/>
	<polygon fill="#CC202C" points="20.587,11.701 20.587,12.08 19.83,11.701 	"/>
	<polygon fill="#CC202C" points="20.443,12.146 20.665,11.84 19.83,11.701 	"/>
	<polygon fill="#CC202C" points="20.821,11.871 20.461,11.988 21.055,12.591 	"/>
	<polygon fill="#CC202C" points="20.443,12.146 20.665,11.84 21.055,12.591 	"/>
	<polygon fill="#CC202C" points="20.353,11.871 20.713,11.988 20.587,11.151 	"/>
	<polygon fill="#CC202C" points="20.821,11.871 20.461,11.988 20.587,11.151 	"/>
	<polygon fill="#CC202C" points="20.353,11.871 20.713,11.988 20.119,12.591 	"/>
	<polygon fill="#CC202C" points="20.732,12.146 20.509,11.84 20.119,12.591 	"/>
</g>
<g>
</g>
<g>
</g>
<g>
</g>
<g>
</g>
<g>
</g>
<g>
</g>
</svg>
