<?xml version="1.0" encoding="utf-8"?>
<!-- Generator: Adobe Illustrator 18.1.0, SVG Export Plug-In . SVG Version: 6.00 Build 0)  -->
<svg version="1.1" id="Camada_1" xmlns="http://www.w3.org/2000/svg" xmlns:xlink="http://www.w3.org/1999/xlink" x="0px" y="0px"
	 viewBox="0 0 26 16" enable-background="new 0 0 26 16" xml:space="preserve">
<rect fill="#215BA5" width="26" height="16"/>
<g>
	
		<rect x="11.2" y="0" fill-rule="evenodd" clip-rule="evenodd" fill="#FFFFFF" stroke="#FFFFFF" stroke-width="0.5" stroke-miterlimit="3.8637" width="3.6" height="16"/>
	
		<rect x="0" y="6.2" fill-rule="evenodd" clip-rule="evenodd" fill="#FFFFFF" stroke="#FFFFFF" stroke-width="0.5" stroke-miterlimit="3.8637" width="26" height="3.6"/>
	
		<rect x="12" y="-9.08" transform="matrix(-0.5136 0.8581 -0.8581 -0.5136 26.5407 0.9537)" fill-rule="evenodd" clip-rule="evenodd" fill="#FFFFFF" stroke="#FFFFFF" stroke-width="0.5" stroke-miterlimit="3.8637" width="2" height="34.159"/>
	
		<rect x="12" y="-9.08" transform="matrix(-0.5136 -0.8581 0.8581 -0.5136 12.8118 23.2632)" fill-rule="evenodd" clip-rule="evenodd" fill="#FFFFFF" stroke="#FFFFFF" stroke-width="0.5" stroke-miterlimit="3.8637" width="2" height="34.159"/>
	<rect x="11.7" y="-0.408" fill-rule="evenodd" clip-rule="evenodd" fill="#DD2428" width="2.6" height="17.403"/>
	<rect x="-1.132" y="6.7" fill-rule="evenodd" clip-rule="evenodd" fill="#DD2428" width="29.736" height="2.6"/>
	
		<rect x="12.4" y="-7.693" transform="matrix(-0.5136 0.8581 -0.8581 -0.5136 26.5407 0.9538)" fill-rule="evenodd" clip-rule="evenodd" fill="#DD2428" width="1.2" height="31.385"/>
	
		<rect x="12.4" y="-7.693" transform="matrix(0.5136 0.8581 -0.8581 0.5136 13.1881 -7.2632)" fill-rule="evenodd" clip-rule="evenodd" fill="#DD2428" width="1.2" height="31.385"/>
</g>
<rect x="0" fill="none" width="26" height="16"/>
</svg>
