<?xml version="1.0" encoding="utf-8"?>
<!-- Generator: Adobe Illustrator 18.1.0, SVG Export Plug-In . SVG Version: 6.00 Build 0)  -->
<svg version="1.1" id="Camada_1" xmlns="http://www.w3.org/2000/svg" xmlns:xlink="http://www.w3.org/1999/xlink" x="0px" y="0px"
	 viewBox="0 0 26 16" enable-background="new 0 0 26 16" xml:space="preserve">
<g>
	<g>
		<rect x="0" y="14.769" fill-rule="evenodd" clip-rule="evenodd" fill="#E83A32" width="26" height="1.23"/>
		<rect x="0" y="13.538" fill-rule="evenodd" clip-rule="evenodd" fill="#FFFFFF" width="26" height="1.231"/>
		<rect x="0" y="12.308" fill-rule="evenodd" clip-rule="evenodd" fill="#E83A32" width="26" height="1.23"/>
		<rect x="0" y="11.077" fill-rule="evenodd" clip-rule="evenodd" fill="#FFFFFF" width="26" height="1.231"/>
		<rect x="0" y="9.846" fill-rule="evenodd" clip-rule="evenodd" fill="#E83A32" width="26" height="1.231"/>
		<rect x="0" y="8.615" fill-rule="evenodd" clip-rule="evenodd" fill="#FFFFFF" width="26" height="1.23"/>
		<rect x="0.2" y="7.385" fill-rule="evenodd" clip-rule="evenodd" fill="#E83A32" width="25.8" height="1.231"/>
		<rect x="0.2" y="6.154" fill-rule="evenodd" clip-rule="evenodd" fill="#FFFFFF" width="25.8" height="1.23"/>
		<rect x="0.2" y="4.923" fill-rule="evenodd" clip-rule="evenodd" fill="#E83A32" width="25.8" height="1.231"/>
		<rect x="0.2" y="3.693" fill-rule="evenodd" clip-rule="evenodd" fill="#FFFFFF" width="25.8" height="1.23"/>
		<rect x="0.2" y="2.462" fill-rule="evenodd" clip-rule="evenodd" fill="#E83A32" width="25.8" height="1.231"/>
		<rect x="0.2" y="1.231" fill-rule="evenodd" clip-rule="evenodd" fill="#FFFFFF" width="25.8" height="1.231"/>
		<rect x="0.2" y="0" fill-rule="evenodd" clip-rule="evenodd" fill="#E83A32" width="25.8" height="1.23"/>
	</g>
	<rect x="0" y="0" fill-rule="evenodd" clip-rule="evenodd" fill="#3768B2" width="12.392" height="8.615"/>
	<g>
		<g>
			<polygon fill-rule="evenodd" clip-rule="evenodd" fill="#FFFFFF" points="1.639,1.884 1.265,1.589 0.891,1.884 1.056,1.437 
				0.659,1.172 1.136,1.191 1.265,0.732 1.393,1.191 1.871,1.172 1.474,1.437 			"/>
			<polygon fill-rule="evenodd" clip-rule="evenodd" fill="#FFFFFF" points="4.104,1.884 3.73,1.589 3.356,1.884 3.521,1.437 
				3.125,1.172 3.601,1.191 3.73,0.732 3.859,1.191 4.336,1.172 3.939,1.437 			"/>
			<polygon fill-rule="evenodd" clip-rule="evenodd" fill="#FFFFFF" points="6.57,1.884 6.196,1.589 5.822,1.884 5.987,1.437 
				5.591,1.172 6.067,1.191 6.196,0.732 6.326,1.191 6.802,1.172 6.405,1.437 			"/>
			<polygon fill-rule="evenodd" clip-rule="evenodd" fill="#FFFFFF" points="9.036,1.884 8.662,1.589 8.287,1.884 8.453,1.437 
				8.057,1.172 8.533,1.191 8.662,0.732 8.791,1.191 9.267,1.172 8.871,1.437 			"/>
			<polygon fill-rule="evenodd" clip-rule="evenodd" fill="#FFFFFF" points="11.502,1.884 11.128,1.589 10.754,1.884 10.919,1.437 
				10.522,1.172 10.998,1.191 11.128,0.732 11.257,1.191 11.733,1.172 11.337,1.437 			"/>
		</g>
		<g>
			<polygon fill-rule="evenodd" clip-rule="evenodd" fill="#FFFFFF" points="2.938,3.384 2.564,3.089 2.19,3.384 2.355,2.936 
				1.959,2.672 2.435,2.691 2.564,2.232 2.694,2.691 3.171,2.672 2.773,2.936 			"/>
			<polygon fill-rule="evenodd" clip-rule="evenodd" fill="#FFFFFF" points="5.405,3.384 5.03,3.089 4.656,3.384 4.821,2.936 
				4.425,2.672 4.901,2.691 5.03,2.232 5.159,2.691 5.636,2.672 5.239,2.936 			"/>
			<polygon fill-rule="evenodd" clip-rule="evenodd" fill="#FFFFFF" points="7.87,3.384 7.496,3.089 7.122,3.384 7.287,2.936 
				6.891,2.672 7.367,2.691 7.496,2.232 7.625,2.691 8.101,2.672 7.705,2.936 			"/>
			<polygon fill-rule="evenodd" clip-rule="evenodd" fill="#FFFFFF" points="10.336,3.384 9.962,3.089 9.588,3.384 9.753,2.936 
				9.356,2.672 9.833,2.691 9.962,2.232 10.091,2.691 10.567,2.672 10.171,2.936 			"/>
		</g>
		<g>
			<polygon fill-rule="evenodd" clip-rule="evenodd" fill="#FFFFFF" points="1.639,4.884 1.265,4.589 0.891,4.884 1.056,4.436 
				0.659,4.172 1.136,4.191 1.265,3.732 1.393,4.191 1.871,4.172 1.474,4.436 			"/>
			<polygon fill-rule="evenodd" clip-rule="evenodd" fill="#FFFFFF" points="4.104,4.884 3.73,4.589 3.356,4.884 3.521,4.436 
				3.125,4.172 3.601,4.191 3.73,3.732 3.859,4.191 4.336,4.172 3.939,4.436 			"/>
			<polygon fill-rule="evenodd" clip-rule="evenodd" fill="#FFFFFF" points="6.57,4.884 6.196,4.589 5.822,4.884 5.987,4.436 
				5.591,4.172 6.067,4.191 6.196,3.732 6.326,4.191 6.802,4.172 6.405,4.436 			"/>
			<polygon fill-rule="evenodd" clip-rule="evenodd" fill="#FFFFFF" points="9.036,4.884 8.662,4.589 8.287,4.884 8.453,4.436 
				8.057,4.172 8.533,4.191 8.662,3.732 8.791,4.191 9.267,4.172 8.871,4.436 			"/>
			<polygon fill-rule="evenodd" clip-rule="evenodd" fill="#FFFFFF" points="11.502,4.884 11.128,4.589 10.754,4.884 10.919,4.436 
				10.522,4.172 10.998,4.191 11.128,3.732 11.257,4.191 11.733,4.172 11.337,4.436 			"/>
		</g>
		<g>
			<polygon fill-rule="evenodd" clip-rule="evenodd" fill="#FFFFFF" points="2.938,6.384 2.564,6.088 2.19,6.384 2.355,5.936 
				1.959,5.672 2.435,5.691 2.564,5.232 2.694,5.691 3.171,5.672 2.773,5.936 			"/>
			<polygon fill-rule="evenodd" clip-rule="evenodd" fill="#FFFFFF" points="5.405,6.384 5.03,6.088 4.656,6.384 4.821,5.936 
				4.425,5.672 4.901,5.691 5.03,5.232 5.159,5.691 5.636,5.672 5.239,5.936 			"/>
			<polygon fill-rule="evenodd" clip-rule="evenodd" fill="#FFFFFF" points="7.87,6.384 7.496,6.088 7.122,6.384 7.287,5.936 
				6.891,5.672 7.367,5.691 7.496,5.232 7.625,5.691 8.101,5.672 7.705,5.936 			"/>
			<polygon fill-rule="evenodd" clip-rule="evenodd" fill="#FFFFFF" points="10.336,6.384 9.962,6.088 9.588,6.384 9.753,5.936 
				9.356,5.672 9.833,5.691 9.962,5.232 10.091,5.691 10.567,5.672 10.171,5.936 			"/>
		</g>
		<g>
			<polygon fill-rule="evenodd" clip-rule="evenodd" fill="#FFFFFF" points="1.639,7.884 1.265,7.588 0.891,7.884 1.056,7.436 
				0.659,7.172 1.136,7.191 1.265,6.732 1.393,7.191 1.871,7.172 1.474,7.436 			"/>
			<polygon fill-rule="evenodd" clip-rule="evenodd" fill="#FFFFFF" points="4.104,7.884 3.73,7.588 3.356,7.884 3.521,7.436 
				3.125,7.172 3.601,7.191 3.73,6.732 3.859,7.191 4.336,7.172 3.939,7.436 			"/>
			<polygon fill-rule="evenodd" clip-rule="evenodd" fill="#FFFFFF" points="6.57,7.884 6.196,7.588 5.822,7.884 5.987,7.436 
				5.591,7.172 6.067,7.191 6.196,6.732 6.326,7.191 6.802,7.172 6.405,7.436 			"/>
			<polygon fill-rule="evenodd" clip-rule="evenodd" fill="#FFFFFF" points="9.036,7.884 8.662,7.588 8.287,7.884 8.453,7.436 
				8.057,7.172 8.533,7.191 8.662,6.732 8.791,7.191 9.267,7.172 8.871,7.436 			"/>
			<polygon fill-rule="evenodd" clip-rule="evenodd" fill="#FFFFFF" points="11.502,7.884 11.128,7.588 10.754,7.884 10.919,7.436 
				10.522,7.172 10.998,7.191 11.128,6.732 11.257,7.191 11.733,7.172 11.337,7.436 			"/>
		</g>
	</g>
</g>
<g>
</g>
<g>
</g>
<g>
</g>
<g>
</g>
<g>
</g>
<g>
</g>
</svg>
