<?xml version="1.0" encoding="utf-8"?>
<!-- Generator: Adobe Illustrator 18.1.0, SVG Export Plug-In . SVG Version: 6.00 Build 0)  -->
<svg version="1.1" id="Layer_1" xmlns="http://www.w3.org/2000/svg" xmlns:xlink="http://www.w3.org/1999/xlink" x="0px" y="0px"
	 viewBox="0 0 32 32" enable-background="new 0 0 32 32" xml:space="preserve">
<circle fill="#39A74A" cx="16" cy="16" r="15"/>
<g>
	<rect x="2.4" y="8.1" fill="none" width="27.1" height="15.4"/>
	<path fill="#FFFFFF" d="M20.6,23.3h-9.4v-1.4l3.8-3.8c1.1-1.2,1.9-2,2.3-2.5c0.4-0.5,0.6-1,0.8-1.4s0.3-1,0.3-1.5
		c0-0.8-0.2-1.4-0.7-1.8c-0.5-0.4-1.1-0.7-1.9-0.7c-0.6,0-1.2,0.1-1.7,0.3S13,11,12.3,11.6l-0.9-1.1c1.3-1.1,2.7-1.6,4.3-1.6
		c1.3,0,2.4,0.3,3.2,1c0.8,0.7,1.1,1.6,1.1,2.8c0,0.9-0.3,1.8-0.8,2.7c-0.5,0.9-1.5,2-2.9,3.4l-3.1,3.1v0.1h7.3V23.3z"/>
</g>
</svg>
