<?xml version="1.0" encoding="utf-8"?>
<!-- Generator: Adobe Illustrator 18.1.0, SVG Export Plug-In . SVG Version: 6.00 Build 0)  -->
<svg version="1.1" id="Layer_1" xmlns="http://www.w3.org/2000/svg" xmlns:xlink="http://www.w3.org/1999/xlink" x="0px" y="0px"
	 viewBox="0 0 32 32" enable-background="new 0 0 32 32" xml:space="preserve">
<circle fill="#39A74A" cx="16" cy="16" r="15"/>
<g>
	<rect x="2.4" y="8.1" fill="none" width="27.1" height="19.4"/>
	<path fill="#FFFFFF" d="M20.1,12.4c0,0.9-0.3,1.7-0.8,2.2c-0.5,0.6-1.2,1-2.2,1.2v0.1c1.1,0.1,2,0.5,2.5,1.1s0.8,1.4,0.8,2.3
		c0,1.4-0.5,2.4-1.4,3.1s-2.3,1.1-4,1.1c-0.8,0-1.4-0.1-2.1-0.2s-1.2-0.3-1.8-0.6v-1.5c0.6,0.3,1.3,0.5,2,0.7s1.4,0.2,2,0.2
		c2.5,0,3.7-1,3.7-2.9c0-1.7-1.4-2.6-4.1-2.6h-1.4v-1.4h1.4c1.1,0,2-0.2,2.6-0.7c0.7-0.5,1-1.2,1-2c0-0.7-0.2-1.2-0.7-1.6
		c-0.5-0.4-1.1-0.6-1.9-0.6c-0.6,0-1.2,0.1-1.8,0.3c-0.6,0.2-1.2,0.5-1.9,0.9l-0.8-1.1c0.6-0.5,1.3-0.8,2-1.1s1.6-0.4,2.4-0.4
		c1.4,0,2.5,0.3,3.2,1S20.1,11.3,20.1,12.4z"/>
</g>
</svg>
