<?xml version="1.0" encoding="utf-8"?>
<!-- Generator: Adobe Illustrator 18.1.0, SVG Export Plug-In . SVG Version: 6.00 Build 0)  -->
<svg version="1.1" id="Layer_1" xmlns="http://www.w3.org/2000/svg" xmlns:xlink="http://www.w3.org/1999/xlink" x="0px" y="0px"
	 viewBox="0 0 32 32" enable-background="new 0 0 32 32" xml:space="preserve">
<circle fill="#39A74A" cx="16" cy="16" r="15"/>
<g>
	<rect x="2.4" y="8.1" fill="none" width="27.1" height="19.4"/>
	<path fill="#FFFFFF" d="M15.7,14.6c1.5,0,2.7,0.4,3.5,1.1c0.9,0.7,1.3,1.8,1.3,3.1c0,1.5-0.5,2.6-1.4,3.5s-2.2,1.3-3.9,1.3
		c-1.6,0-2.8-0.3-3.7-0.8v-1.6c0.5,0.3,1,0.5,1.7,0.7s1.3,0.2,2,0.2c1.1,0,2-0.3,2.7-0.8c0.6-0.5,1-1.3,1-2.3c0-2-1.2-3-3.7-3
		c-0.6,0-1.4,0.1-2.5,0.3l-0.8-0.5L12.5,9h7.1v1.5h-5.7l-0.4,4.3C14.2,14.6,15,14.6,15.7,14.6z"/>
</g>
</svg>
