<?xml version="1.0" encoding="utf-8"?>
<!-- Generator: Adobe Illustrator 18.1.0, SVG Export Plug-In . SVG Version: 6.00 Build 0)  -->
<svg version="1.1" id="Layer_1" xmlns="http://www.w3.org/2000/svg" xmlns:xlink="http://www.w3.org/1999/xlink" x="0px" y="0px"
	 viewBox="0 0 32 32" enable-background="new 0 0 32 32" xml:space="preserve">
<circle fill="#39A74A" cx="16" cy="16" r="15"/>
<g>
	<rect x="2.4" y="8.1" fill="none" width="27.1" height="19.4"/>
	<path fill="#FFFFFF" d="M11.4,17.2c0-2.8,0.5-4.9,1.6-6.3c1.1-1.4,2.7-2.1,4.8-2.1c0.7,0,1.3,0.1,1.7,0.2v1.4
		c-0.5-0.2-1.1-0.2-1.7-0.2c-1.5,0-2.7,0.5-3.5,1.4c-0.8,1-1.2,2.5-1.3,4.5h0.1c0.7-1.1,1.8-1.7,3.4-1.7c1.3,0,2.3,0.4,3,1.2
		c0.7,0.8,1.1,1.8,1.1,3.2c0,1.5-0.4,2.7-1.2,3.5s-1.9,1.3-3.3,1.3c-1.5,0-2.6-0.6-3.5-1.7S11.4,19.2,11.4,17.2z M16.2,22.1
		c0.9,0,1.6-0.3,2.2-0.9s0.8-1.4,0.8-2.5c0-0.9-0.2-1.7-0.7-2.2c-0.5-0.5-1.2-0.8-2.1-0.8c-0.6,0-1.1,0.1-1.6,0.4
		c-0.5,0.2-0.9,0.6-1.2,1c-0.3,0.4-0.4,0.9-0.4,1.3c0,0.7,0.1,1.3,0.4,1.9c0.3,0.6,0.6,1,1.1,1.4C15.1,21.9,15.6,22.1,16.2,22.1z"/>
</g>
</svg>
