<?xml version="1.0" encoding="utf-8"?>
<!-- Generator: Adobe Illustrator 18.1.0, SVG Export Plug-In . SVG Version: 6.00 Build 0)  -->
<svg version="1.1" id="Layer_1" xmlns="http://www.w3.org/2000/svg" xmlns:xlink="http://www.w3.org/1999/xlink" x="0px" y="0px"
	 viewBox="0 0 32 32" enable-background="new 0 0 32 32" xml:space="preserve">
<circle fill="#39A74A" cx="16" cy="16" r="15"/>
<g>
	<rect x="2.4" y="8.1" fill="none" width="27.1" height="19.4"/>
	<path fill="#FFFFFF" d="M16,8.8c1.3,0,2.3,0.3,3.1,0.9s1.1,1.4,1.1,2.5c0,0.7-0.2,1.3-0.7,1.9c-0.4,0.6-1.1,1.1-2.1,1.6
		c1.2,0.6,2,1.1,2.5,1.7c0.5,0.6,0.7,1.3,0.7,2.1c0,1.2-0.4,2.1-1.2,2.8s-2,1.1-3.4,1.1c-1.5,0-2.7-0.3-3.5-1s-1.2-1.6-1.2-2.8
		c0-1.6,1-2.9,3-3.8c-0.9-0.5-1.5-1.1-1.9-1.6c-0.4-0.6-0.6-1.2-0.6-2c0-1,0.4-1.9,1.1-2.5S14.7,8.8,16,8.8z M12.9,19.7
		c0,0.8,0.3,1.4,0.8,1.8c0.5,0.4,1.3,0.7,2.3,0.7c1,0,1.7-0.2,2.3-0.7c0.5-0.5,0.8-1.1,0.8-1.9c0-0.6-0.3-1.2-0.8-1.7
		c-0.5-0.5-1.4-1-2.7-1.4c-1,0.4-1.7,0.9-2.1,1.4C13.1,18.4,12.9,19,12.9,19.7z M16,10.1c-0.8,0-1.5,0.2-1.9,0.6s-0.7,0.9-0.7,1.6
		c0,0.6,0.2,1.1,0.6,1.5s1.1,0.9,2.1,1.3c0.9-0.4,1.6-0.8,2-1.3s0.6-1,0.6-1.6c0-0.7-0.2-1.2-0.7-1.6C17.4,10.3,16.8,10.1,16,10.1z"
		/>
</g>
</svg>
