<?xml version="1.0" encoding="utf-8"?>
<!-- Generator: Adobe Illustrator 18.1.0, SVG Export Plug-In . SVG Version: 6.00 Build 0)  -->
<svg version="1.1" id="Layer_1" xmlns="http://www.w3.org/2000/svg" xmlns:xlink="http://www.w3.org/1999/xlink" x="0px" y="0px"
	 viewBox="0 0 32 32" enable-background="new 0 0 32 32" xml:space="preserve">
<circle fill="#39A74A" cx="16" cy="16" r="15"/>
<g>
	<rect x="2.4" y="8.1" fill="none" width="27.1" height="19.4"/>
	<path fill="#FFFFFF" d="M20.6,15.1c0,5.6-2.2,8.4-6.5,8.4c-0.8,0-1.4-0.1-1.8-0.2v-1.4c0.5,0.2,1.1,0.3,1.8,0.3
		c1.6,0,2.7-0.5,3.5-1.5s1.2-2.5,1.3-4.4h-0.1c-0.4,0.5-0.8,1-1.4,1.2s-1.3,0.4-2,0.4c-1.3,0-2.3-0.4-3-1.1
		c-0.7-0.8-1.1-1.8-1.1-3.2c0-1.5,0.4-2.7,1.2-3.5s1.9-1.3,3.3-1.3c1,0,1.8,0.2,2.5,0.7s1.3,1.2,1.7,2.2
		C20.4,12.7,20.6,13.8,20.6,15.1z M15.8,10.2c-0.9,0-1.7,0.3-2.2,0.9c-0.5,0.6-0.8,1.4-0.8,2.5c0,0.9,0.2,1.7,0.7,2.2
		s1.2,0.8,2.1,0.8c0.6,0,1.1-0.1,1.6-0.4c0.5-0.2,0.9-0.6,1.2-1c0.3-0.4,0.4-0.9,0.4-1.3c0-0.7-0.1-1.3-0.4-1.9
		c-0.3-0.6-0.6-1-1.1-1.4S16.5,10.2,15.8,10.2z"/>
</g>
</svg>
