<?xml version="1.0" encoding="utf-8"?>
<!-- Generator: Adobe Illustrator 18.1.0, SVG Export Plug-In . SVG Version: 6.00 Build 0)  -->
<svg version="1.1" xmlns="http://www.w3.org/2000/svg" xmlns:xlink="http://www.w3.org/1999/xlink" x="0px" y="0px" width="42px"
	 height="42px" viewBox="0 0 42 42" enable-background="new 0 0 42 42" xml:space="preserve">
<g id="Layer_2">
</g>
<g id="Layer_1">
	<g>
		<g>
			<polyline fill="none" stroke="#FFFFFF" stroke-width="1.875" stroke-miterlimit="10" points="31.7,2.3 39.8,2.3 39.8,8.6 
				13.2,8.6 			"/>
			<polyline fill="none" stroke="#FFFFFF" stroke-width="1.875" stroke-miterlimit="10" points="10.3,8.6 2.3,8.6 2.3,2.3 28.8,2.3 
							"/>
		</g>
		<g>
			<polyline fill="none" stroke="#FFFFFF" stroke-width="1.875" stroke-miterlimit="10" points="10.3,19 2.3,19 2.3,12.6 28.8,12.6 
							"/>
			<polyline fill="none" stroke="#FFFFFF" stroke-width="1.875" stroke-miterlimit="10" points="31.7,12.6 39.8,12.6 39.8,19 
				13.1,19 			"/>
		</g>
		<g>
			<polyline fill="none" stroke="#FFFFFF" stroke-width="1.875" stroke-miterlimit="10" points="10.3,29.4 2.3,29.4 2.3,23 28.8,23 
							"/>
			<polyline fill="none" stroke="#FFFFFF" stroke-width="1.875" stroke-miterlimit="10" points="31.7,23 39.8,23 39.8,29.4 
				13.1,29.4 			"/>
		</g>
		<g>
			<polyline fill="none" stroke="#FFFFFF" stroke-width="1.875" stroke-miterlimit="10" points="31.7,33.4 39.8,33.4 39.8,39.8 
				2.3,39.8 2.3,33.4 28.8,33.4 			"/>
		</g>
	</g>
</g>
</svg>
