<?xml version="1.0" encoding="utf-8"?>
<!-- Generator: Adobe Illustrator 19.1.0, SVG Export Plug-In . SVG Version: 6.00 Build 0)  -->
<svg version="1.1" id="Layer_1" xmlns="http://www.w3.org/2000/svg" xmlns:xlink="http://www.w3.org/1999/xlink" x="0px" y="0px"
	 width="43px" height="43px" viewBox="0 0 43 43" style="enable-background:new 0 0 43 43;" xml:space="preserve">
<style type="text/css">
	.st0{fill:#FFFFFF;}
</style>
<g>
	<rect x="17.9" y="26.4" class="st0" width="7.4" height="2.1"/>
	<rect x="5.9" y="26.4" class="st0" width="7.5" height="2.1"/>
	<rect x="29.8" y="26.4" class="st0" width="7.3" height="2.1"/>
	<rect x="5.9" y="14.5" class="st0" width="7.5" height="2.1"/>
	<rect x="17.9" y="14.5" class="st0" width="7.4" height="2.1"/>
	<rect x="29.8" y="14.5" class="st0" width="7.3" height="2.1"/>
	<rect x="26.5" y="5.9" class="st0" width="2.1" height="7.4"/>
	<rect x="26.5" y="29.7" class="st0" width="2.1" height="7.4"/>
	<rect x="26.5" y="17.8" class="st0" width="2.1" height="7.4"/>
	<rect x="17.9" y="2.6" class="st0" width="7.4" height="2.1"/>
	<polygon class="st0" points="40.4,40.4 29.8,40.4 29.8,38.3 38.3,38.3 38.3,29.7 40.4,29.7 	"/>
	<rect x="2.6" y="17.8" class="st0" width="2.1" height="7.4"/>
	<polygon class="st0" points="4.7,13.3 2.6,13.3 2.6,2.6 13.4,2.6 13.4,4.7 4.7,4.7 	"/>
	<polygon class="st0" points="13.4,40.4 2.6,40.4 2.6,29.7 4.7,29.7 4.7,38.3 13.4,38.3 	"/>
	<rect x="17.9" y="38.3" class="st0" width="7.4" height="2.1"/>
	<rect x="38.3" y="17.8" class="st0" width="2.1" height="7.4"/>
	<polygon class="st0" points="40.4,13.3 38.3,13.3 38.3,4.7 29.8,4.7 29.8,2.6 40.4,2.6 	"/>
	<rect x="14.6" y="5.9" class="st0" width="2.1" height="7.4"/>
	<rect x="14.6" y="29.7" class="st0" width="2.1" height="7.3"/>
	<rect x="14.6" y="17.8" class="st0" width="2.1" height="7.4"/>
</g>
</svg>
