<?xml version="1.0" encoding="utf-8"?>
<!-- Generator: Adobe Illustrator 19.1.0, SVG Export Plug-In . SVG Version: 6.00 Build 0)  -->
<svg version="1.1" id="Layer_1" xmlns="http://www.w3.org/2000/svg" xmlns:xlink="http://www.w3.org/1999/xlink" x="0px" y="0px"
	 width="29px" height="29px" viewBox="0 0 29 29" style="enable-background:new 0 0 29 29;" xml:space="preserve">
<style type="text/css">
	.st0{fill:#747474;}
</style>
<g>
	<rect x="12" y="17.9" class="st0" width="5.1" height="1.5"/>
	<rect x="3.8" y="17.9" class="st0" width="5.2" height="1.5"/>
	<rect x="20.2" y="17.9" class="st0" width="5" height="1.5"/>
	<rect x="3.8" y="9.7" class="st0" width="5.2" height="1.5"/>
	<rect x="12" y="9.7" class="st0" width="5.1" height="1.5"/>
	<rect x="20.2" y="9.7" class="st0" width="5" height="1.5"/>
	<rect x="17.9" y="3.8" class="st0" width="1.5" height="5.1"/>
	<rect x="17.9" y="20.1" class="st0" width="1.5" height="5.1"/>
	<rect x="17.9" y="11.9" class="st0" width="1.5" height="5.1"/>
	<rect x="12" y="1.5" class="st0" width="5.1" height="1.5"/>
	<polygon class="st0" points="27.5,27.5 20.2,27.5 20.2,26 26,26 26,20.1 27.5,20.1 	"/>
	<rect x="1.5" y="11.9" class="st0" width="1.5" height="5.1"/>
	<polygon class="st0" points="3,8.9 1.5,8.9 1.5,1.5 8.9,1.5 8.9,3 3,3 	"/>
	<polygon class="st0" points="8.9,27.5 1.5,27.5 1.5,20.1 3,20.1 3,26 8.9,26 	"/>
	<rect x="12" y="26" class="st0" width="5.1" height="1.5"/>
	<rect x="26" y="11.9" class="st0" width="1.5" height="5.1"/>
	<polygon class="st0" points="27.5,8.9 26,8.9 26,3 20.2,3 20.2,1.5 27.5,1.5 	"/>
	<rect x="9.8" y="3.8" class="st0" width="1.5" height="5.1"/>
	<rect x="9.8" y="20.1" class="st0" width="1.5" height="5"/>
	<rect x="9.8" y="11.9" class="st0" width="1.5" height="5.1"/>
</g>
</svg>
