<?xml version="1.0" encoding="utf-8"?>
<!-- Generator: Adobe Illustrator 18.1.0, SVG Export Plug-In . SVG Version: 6.00 Build 0)  -->
<svg version="1.1" xmlns="http://www.w3.org/2000/svg" xmlns:xlink="http://www.w3.org/1999/xlink" x="0px" y="0px" width="26px"
	 height="26px" viewBox="0 0 26 26" enable-background="new 0 0 26 26" xml:space="preserve">
<g id="Layer_2">
</g>
<g id="Layer_1">
	<g>
		<g>
			<polyline fill="none" stroke="#555555" stroke-width="1.1719" stroke-miterlimit="10" points="19.7,1.3 24.7,1.3 24.7,5.3 
				8.1,5.3 			"/>
			<polyline fill="none" stroke="#555555" stroke-width="1.1719" stroke-miterlimit="10" points="6.3,5.3 1.3,5.3 1.3,1.3 17.9,1.3 
							"/>
		</g>
		<g>
			<polyline fill="none" stroke="#555555" stroke-width="1.1719" stroke-miterlimit="10" points="6.3,11.8 1.3,11.8 1.3,7.8 
				17.9,7.8 			"/>
			<polyline fill="none" stroke="#555555" stroke-width="1.1719" stroke-miterlimit="10" points="19.7,7.8 24.7,7.8 24.7,11.8 
				8.1,11.8 			"/>
		</g>
		<g>
			<polyline fill="none" stroke="#555555" stroke-width="1.1719" stroke-miterlimit="10" points="6.3,18.2 1.3,18.2 1.3,14.2 
				17.9,14.2 			"/>
			<polyline fill="none" stroke="#555555" stroke-width="1.1719" stroke-miterlimit="10" points="19.7,14.2 24.7,14.2 24.7,18.2 
				8.1,18.2 			"/>
		</g>
		<g>
			<polyline fill="none" stroke="#555555" stroke-width="1.1719" stroke-miterlimit="10" points="19.7,20.7 24.7,20.7 24.7,24.7 
				1.3,24.7 1.3,20.7 17.9,20.7 			"/>
		</g>
	</g>
</g>
</svg>
