<?xml version="1.0" encoding="utf-8"?>
<!-- Generator: Adobe Illustrator 18.1.1, SVG Export Plug-In . SVG Version: 6.00 Build 0)  -->
<svg version="1.1" id="Layer_1" xmlns="http://www.w3.org/2000/svg" xmlns:xlink="http://www.w3.org/1999/xlink" x="0px" y="0px"
	 width="52px" height="52px" viewBox="0 0 52 52" enable-background="new 0 0 52 52" xml:space="preserve">
<g>
	<polygon fill="#565656" points="14.8,15.2 8.9,15.2 8.9,12.8 12.5,12.8 12.5,3.3 2.9,3.3 2.9,12.8 5.3,12.8 5.3,15.2 0.5,15.2 
		0.5,0.9 14.8,0.9 	"/>
	<g>
		<polygon fill="#565656" points="33.4,32.6 19,32.6 19,18.2 33.4,18.2 33.4,24 31,24 31,20.6 21.4,20.6 21.4,30.2 31,30.2 31,26.4 
			33.4,26.4 		"/>
	</g>
	<g>
		<polygon fill="#565656" points="51.5,32.6 37.2,32.6 37.2,18.2 43.1,18.2 43.1,20.6 39.5,20.6 39.5,30.2 49.1,30.2 49.1,20.6 
			45.5,20.6 45.5,18.2 51.5,18.2 		"/>
	</g>
	<g>
		<polygon fill="#565656" points="51.5,15.2 37.2,15.2 37.2,9.2 39.5,9.2 39.5,12.8 49.1,12.8 49.1,3.3 39.5,3.3 39.5,6.9 37.2,6.9 
			37.2,0.9 51.5,0.9 		"/>
	</g>
	<g>
		<polygon fill="#565656" points="33.4,51.1 19,51.1 19,36.8 25,36.8 25,39.2 21.4,39.2 21.4,48.7 31,48.7 31,39.2 27.4,39.2 
			27.4,36.8 33.4,36.8 		"/>
	</g>
	<g>
		<polygon fill="#565656" points="14.8,51.1 0.5,51.1 0.5,36.8 14.8,36.8 14.8,42.5 12.5,42.5 12.5,39.2 2.9,39.2 2.9,48.7 
			12.5,48.7 12.5,44.8 14.8,44.8 		"/>
	</g>
	<g>
		<polygon fill="#565656" points="14.8,32.6 0.5,32.6 0.5,26.6 2.9,26.6 2.9,30.2 12.5,30.2 12.5,20.6 2.9,20.6 2.9,24.2 0.5,24.2 
			0.5,18.2 14.8,18.2 		"/>
	</g>
	<g>
		<polygon fill="#565656" points="51.5,51.1 45.5,51.1 45.5,48.7 49.1,48.7 49.1,39.2 39.5,39.2 39.5,48.7 43.1,48.7 43.1,51.1 
			37.2,51.1 37.2,36.8 51.5,36.8 		"/>
	</g>
	<g>
		<polygon fill="#565656" points="33.4,15.2 19,15.2 19,0.9 25,0.9 25,3.3 21.4,3.3 21.4,12.8 31,12.8 31,3.3 27.4,3.3 27.4,0.9 
			33.4,0.9 		"/>
	</g>
</g>
</svg>
