<?xml version="1.0" encoding="utf-8"?>
<!-- Generator: Adobe Illustrator 18.1.0, SVG Export Plug-In . SVG Version: 6.00 Build 0)  -->
<svg version="1.1" xmlns="http://www.w3.org/2000/svg" xmlns:xlink="http://www.w3.org/1999/xlink" x="0px" y="0px" width="40px"
	 height="40px" viewBox="0 0 40 40" enable-background="new 0 0 40 40" xml:space="preserve">
<g id="Layer_2">
</g>
<g id="Layer_1">
	<g>
		<g>
			<g>
				<g>
					<polyline fill="#666666" points="26.6,38.9 1.5,38.9 1.5,1.1 38.5,1.1 38.5,38.9 26.6,38.9 					"/>
				</g>
			</g>
		</g>
		<path opacity="0.5" fill="#FFFFFF" d="M28.1,26.4L23,21.3c0.7-1,1-2.2,1-3.4c0-1.6-0.6-3.2-1.8-4.3c-1.1-1.1-2.7-1.8-4.3-1.8
			c-1.6,0-3.2,0.6-4.3,1.8c-1.1,1.1-1.8,2.7-1.8,4.3c0,1.6,0.6,3.2,1.8,4.3c1.1,1.1,2.7,1.8,4.3,1.8c1.2,0,2.4-0.4,3.4-1l5.1,5.1
			c0.2,0.2,0.5,0.1,0.7-0.1l0.9-0.9C28.2,26.9,28.3,26.6,28.1,26.4z M17.9,22.3c-2.4,0-4.4-2-4.4-4.4s2-4.4,4.4-4.4
			c2.4,0,4.4,2,4.4,4.4S20.3,22.3,17.9,22.3z"/>
	</g>
</g>
</svg>
