<?xml version="1.0" encoding="utf-8"?>
<!-- Generator: Adobe Illustrator 15.0.0, SVG Export Plug-In . SVG Version: 6.00 Build 0)  -->
<!DOCTYPE svg PUBLIC "-//W3C//DTD SVG 1.1//EN" "http://www.w3.org/Graphics/SVG/1.1/DTD/svg11.dtd">
<svg version="1.1" xmlns="http://www.w3.org/2000/svg" xmlns:xlink="http://www.w3.org/1999/xlink" x="0px" y="0px"
	 width="403.001px" height="428px" viewBox="0 0 403.001 428" enable-background="new 0 0 403.001 428" xml:space="preserve">
<symbol  id="Bush_Left" viewBox="-43.3 -24.308 86.601 48.616">
	<g>
		<g>
			<path fill="#00A651" d="M-33.888-3.511c8.299,8.895,13.237,21.556,13.237,21.556C-24.14,7.54-28.211,2.316-34.923-6.174
				L-33.888-3.511z"/>
			<path fill="#00A651" d="M-30.487,3.161c0.297,2.265,2.376,11.441,2.376,11.441l-2.153-5.593
				c-0.479-2.881,0.761-5.555,0.447-7.952L-30.487,3.161z"/>
			<path fill="#00A651" d="M-27.667,8.564c0.297,2.266,1.726,9.829,1.726,9.829l-0.53-3.791c0-2.441-0.211-5.744-0.526-8.142
				L-27.667,8.564z"/>
			<path fill="#00A651" d="M-24.188,13.377c0.216,1.381,3.051,6.614,3.051,6.614l-2.181-2.933c0-1.488-0.154-3.502-0.382-4.963
				L-24.188,13.377z"/>
			<path fill="#00A651" d="M-21.167,18.075c0.602,1.177,2.76,6.233,2.76,6.233l-1.281-3.511c-0.313-1.289-0.958-3.019-1.595-4.264
				L-21.167,18.075z"/>
			<path fill="#00A651" d="M-26.043,10.332c0.297,2.265,1.726,9.828,1.726,9.828l-1.161-4.837c0-2.441,0.42-4.697,0.105-7.095
				L-26.043,10.332z"/>
			<path fill="#00A651" d="M-24.522,3.487c1.421,0.866,6.495,3.396,6.495,3.396l-3.35-2.196c-1.774-1.164-5.323-0.626-6.827-1.543
				L-24.522,3.487z"/>
			<path fill="#00A651" d="M-21.855,6.884c1.898,1.261,6.128,5.077,6.128,5.077l-3.163-2.14c-2.187-1.069-5.052-2.709-7.062-4.043
				L-21.855,6.884z"/>
			<path fill="#00A651" d="M-21.837,13.088c1.036,0.934,3.865,6.169,3.865,6.169l-1.263-3.433c-1.244-0.811-2.842-2.037-3.939-3.025
				L-21.837,13.088z"/>
			<path fill="#00A651" d="M-23.271,9.473c1.577,1.009,5.962,5.851,5.962,5.851l-2.632-3.877c-1.816-0.857-3.47-1.16-5.14-2.229
				L-23.271,9.473z"/>
			<path fill="#00A651" d="M-32.966,0.366c0.297,2.265,1.6,12.736,1.6,12.736l-1.376-6.887c-0.479-2.881,0.762-5.555,0.447-7.953
				L-32.966,0.366z"/>
			<path fill="#00A651" d="M-34.966-1.264c0.297,2.266,1.599,12.736,1.599,12.736l-1.376-6.887
				c-0.479-2.882,0.761-5.556,0.447-7.953L-34.966-1.264z"/>
			<path fill="#00A651" d="M-29.402-0.557c1.549,0.605,10.179,4.284,10.179,4.284l-4.82-3.121c-1.949-0.838-5.362-0.453-7.002-1.095
				L-29.402-0.557z"/>
			<path fill="#00A651" d="M-29.97-3.318c1.727,0.743,9.727,4.106,9.727,4.106l-5.13-2.746c-2.171-1.049-4.612-0.291-6.44-1.078
				L-29.97-3.318z"/>
		</g>
		<g>
			<path fill="#00A651" d="M-41.108-9.821c17.332-2.827,35.766-10.603,35.766-10.603C-18.811-13.763-28.099-11.68-43.3-8.345
				L-41.108-9.821z"/>
			<path fill="#00A651" d="M-29.852-13.562c2.399-1.676,13.091-8.003,13.091-8.003l-7.499,3.39
				c-3.164,2.079-4.231,4.895-6.771,6.668L-29.852-13.562z"/>
			<path fill="#00A651" d="M-21.787-16.448c2.399-1.676,10.895-7.041,10.895-7.041l-4.051,2.787
				c-2.23,1.975-5.483,4.535-8.022,6.309L-21.787-16.448z"/>
			<path fill="#00A651" d="M-13.531-18.509c1.501-1.004,9.426-3.744,9.426-3.744l-5.098,1.225c-1.36,1.204-3.371,2.751-4.96,3.813
				L-13.531-18.509z"/>
			<path fill="#00A651" d="M-5.888-20.719c1.742-0.635,8.756-3.589,8.756-3.589l-4.628,2.165c-1.525,0.878-3.821,1.938-5.666,2.609
				L-5.888-20.719z"/>
			<path fill="#00A651" d="M-18.371-17.022c2.399-1.676,10.895-7.041,10.895-7.041l-5.708,3.301
				c-2.23,1.975-3.826,4.021-6.366,5.795L-18.371-17.022z"/>
			<path fill="#00A651" d="M-22.937-10.686c2.367,0.047,10.307,0.671,10.307,0.671l-5.722,0.014
				c-3.032,0.008-6.476-2.295-8.982-2.345L-22.937-10.686z"/>
			<path fill="#00A651" d="M-16.876-12.029c3.258-0.021,11.436-0.882,11.436-0.882l-5.462,0.066
				c-3.403-0.285-8.078-0.468-11.526-0.445L-16.876-12.029z"/>
			<path fill="#00A651" d="M-11.188-17.037c2.003-0.21,9.925-2.956,9.925-2.956L-5.8-17.882c-2.12,0.001-5.014,0.151-7.134,0.374
				L-11.188-17.037z"/>
			<path fill="#00A651" d="M-16.082-14.868c2.671,0.014,11.958-1.595,11.958-1.595l-6.461,1.751
				c-2.797-0.263-4.908-0.889-7.736-0.902L-16.082-14.868z"/>
			<path fill="#00A651" d="M-35.155-12.604c2.399-1.677,13.411-9.46,13.411-9.46l-7.819,4.846c-3.163,2.079-4.231,4.895-6.771,6.668
				L-35.155-12.604z"/>
			<path fill="#00A651" d="M-38.862-12.34c2.399-1.676,13.412-9.459,13.412-9.459l-7.819,4.846
				c-3.164,2.079-4.231,4.894-6.771,6.668L-38.862-12.34z"/>
			<path fill="#00A651" d="M-32.045-9.982c2.271,0.325,15.205,1.892,15.205,1.892l-8.198-0.013c-2.927-0.348-6.361-2.455-8.766-2.8
				L-32.045-9.982z"/>
			<path fill="#00A651" d="M-35.199-8.048C-32.604-7.74-20.658-6.25-20.658-6.25l-8.2-0.479c-3.366-0.294-5.381-2.191-8.127-2.518
				L-35.199-8.048z"/>
		</g>
		<g>
			<path fill="#00A651" d="M-20.024-4.793c13.512-1.991,27.731-7.055,27.731-7.055c-10.5,4.69-17.742,6.158-29.593,8.506
				L-20.024-4.793z"/>
			<path fill="#00A651" d="M-11.401-7.015c1.871-1.181,10.206-5.637,10.206-5.637l-5.846,2.388C-9.508-8.8-10.341-6.817-12.32-5.568
				L-11.401-7.015z"/>
			<path fill="#00A651" d="M-5.113-9.048c1.87-1.18,8.494-4.958,8.494-4.958l-3.158,1.963c-1.739,1.39-4.275,3.192-6.255,4.442
				L-5.113-9.048z"/>
			<path fill="#00A651" d="M1.323-10.499c1.17-0.707,7.349-2.637,7.349-2.637l-3.975,0.862c-1.06,0.848-2.627,1.938-3.867,2.686
				L1.323-10.499z"/>
			<path fill="#00A651" d="M7.281-12.056c1.358-0.447,6.827-2.527,6.827-2.527L10.5-13.059c-1.189,0.618-2.979,1.365-4.417,1.838
				L7.281-12.056z"/>
			<path fill="#00A651" d="M-2.451-9.452c1.871-1.181,8.494-4.959,8.494-4.959l-4.45,2.325c-1.739,1.391-2.982,2.831-4.962,4.08
				L-2.451-9.452z"/>
			<path fill="#00A651" d="M-6.011-4.99c1.846,0.033,8.036,0.473,8.036,0.473l-4.46,0.01c-2.364,0.006-5.049-1.616-7.002-1.651
				L-6.011-4.99z"/>
			<path fill="#00A651" d="M-1.285-5.937c2.54-0.015,8.916-0.62,8.916-0.62L3.372-6.511c-2.653-0.2-6.298-0.329-8.986-0.313
				L-1.285-5.937z"/>
			<path fill="#00A651" d="M3.15-9.463c1.562-0.148,7.737-2.082,7.737-2.082L7.35-10.058c-1.653,0.001-3.909,0.106-5.562,0.263
				L3.15-9.463z"/>
			<path fill="#00A651" d="M-0.666-7.936c2.083,0.01,9.323-1.123,9.323-1.123L3.62-7.825C1.439-8.011-0.207-8.451-2.411-8.461
				L-0.666-7.936z"/>
			<path fill="#00A651" d="M-15.536-6.342c1.871-1.18,10.456-6.661,10.456-6.661l-6.096,3.413c-2.466,1.463-3.299,3.445-5.278,4.695
				L-15.536-6.342z"/>
			<path fill="#00A651" d="M-18.426-6.154c1.87-1.181,10.456-6.662,10.456-6.662l-6.096,3.413c-2.466,1.464-3.299,3.446-5.279,4.695
				L-18.426-6.154z"/>
			<path fill="#00A651" d="M-13.112-4.495c1.771,0.229,11.854,1.332,11.854,1.332l-6.392-0.009
				c-2.282-0.245-4.959-1.729-6.834-1.972L-13.112-4.495z"/>
			<path fill="#00A651" d="M-15.57-3.133c2.022,0.217,11.336,1.267,11.336,1.267l-6.393-0.338c-2.625-0.207-4.195-1.543-6.336-1.772
				L-15.57-3.133z"/>
		</g>
		<g>
			<path fill="#00A651" d="M1.652-2.056c12.235-1.712,25.111-6.067,25.111-6.067C17.255-4.089,10.698-2.826-0.033-0.807L1.652-2.056
				z"/>
			<path fill="#00A651" d="M9.46-3.967c1.694-1.015,9.242-4.848,9.242-4.848l-5.294,2.054c-2.233,1.259-2.987,2.964-4.78,4.039
				L9.46-3.967z"/>
			<path fill="#00A651" d="M15.154-5.715c1.693-1.016,7.691-4.266,7.691-4.266l-2.86,1.688c-1.574,1.196-3.87,2.747-5.663,3.821
				L15.154-5.715z"/>
			<path fill="#00A651" d="M20.982-6.964c1.06-0.607,6.654-2.268,6.654-2.268L24.038-8.49c-0.96,0.729-2.379,1.667-3.501,2.311
				L20.982-6.964z"/>
			<path fill="#00A651" d="M26.378-8.303c1.229-0.385,6.182-2.174,6.182-2.174l-3.268,1.312c-1.076,0.532-2.697,1.174-3.999,1.581
				L26.378-8.303z"/>
			<path fill="#00A651" d="M17.565-6.063c1.693-1.015,7.691-4.266,7.691-4.266l-4.03,2c-1.574,1.196-2.7,2.436-4.493,3.511
				L17.565-6.063z"/>
			<path fill="#00A651" d="M14.342-2.225c1.672,0.028,7.276,0.406,7.276,0.406L17.579-1.81C15.438-1.805,13.008-3.2,11.238-3.23
				L14.342-2.225z"/>
			<path fill="#00A651" d="M18.621-3.038c2.3-0.013,8.072-0.534,8.072-0.534l-3.855,0.04c-2.402-0.173-5.703-0.283-8.138-0.271
				L18.621-3.038z"/>
			<path fill="#00A651" d="M22.637-6.072c1.414-0.127,7.006-1.791,7.006-1.791l-3.203,1.279c-1.496,0.001-3.539,0.092-5.036,0.227
				L22.637-6.072z"/>
			<path fill="#00A651" d="M19.182-4.758c1.886,0.008,8.442-0.966,8.442-0.966l-4.562,1.06c-1.975-0.158-3.465-0.538-5.461-0.546
				L19.182-4.758z"/>
			<path fill="#00A651" d="M5.717-3.387c1.694-1.016,9.468-5.73,9.468-5.73l-5.52,2.936c-2.233,1.259-2.987,2.964-4.78,4.039
				L5.717-3.387z"/>
			<path fill="#00A651" d="M3.1-3.227c1.694-1.015,9.468-5.73,9.468-5.73l-5.52,2.936c-2.233,1.26-2.987,2.965-4.78,4.04L3.1-3.227z
				"/>
			<path fill="#00A651" d="M7.912-1.799c1.604,0.197,10.733,1.146,10.733,1.146L12.858-0.66C10.792-0.871,8.368-2.147,6.67-2.356
				L7.912-1.799z"/>
			<path fill="#00A651" d="M5.686-0.627C7.518-0.44,15.951,0.462,15.951,0.462l-5.789-0.29C7.786-0.006,6.364-1.155,4.425-1.353
				L5.686-0.627z"/>
		</g>
		<g>
			<path fill="#00A651" d="M14.002,2.836c11.079-1.473,22.738-5.22,22.738-5.22C28.13,1.087,22.192,2.173,12.476,3.91L14.002,2.836z
				"/>
			<path fill="#00A651" d="M21.072,1.192c1.533-0.873,8.367-4.171,8.367-4.171l-4.793,1.767c-2.022,1.083-2.705,2.551-4.328,3.475
				L21.072,1.192z"/>
			<path fill="#00A651" d="M26.228-0.312c1.534-0.874,6.964-3.67,6.964-3.67l-2.589,1.452c-1.426,1.029-3.505,2.363-5.129,3.288
				L26.228-0.312z"/>
			<path fill="#00A651" d="M31.505-1.386c0.96-0.523,6.025-1.951,6.025-1.951l-3.259,0.638c-0.869,0.628-2.154,1.434-3.17,1.987
				L31.505-1.386z"/>
			<path fill="#00A651" d="M36.391-2.538c1.114-0.331,5.598-1.87,5.598-1.87l-2.959,1.129c-0.975,0.457-2.442,1.009-3.621,1.359
				L36.391-2.538z"/>
			<path fill="#00A651" d="M28.411-0.611c1.533-0.873,6.964-3.669,6.964-3.669l-3.648,1.72c-1.426,1.029-2.445,2.095-4.069,3.02
				L28.411-0.611z"/>
			<path fill="#00A651" d="M25.492,2.69c1.514,0.024,6.589,0.35,6.589,0.35l-3.658,0.007c-1.938,0.005-4.14-1.195-5.741-1.222
				L25.492,2.69z"/>
			<path fill="#00A651" d="M29.367,1.99c2.082-0.011,7.31-0.459,7.31-0.459l-3.492,0.034c-2.175-0.148-5.163-0.243-7.368-0.232
				L29.367,1.99z"/>
			<path fill="#00A651" d="M33.003-0.619c1.28-0.109,6.344-1.54,6.344-1.54l-2.9,1.1c-1.354,0.001-3.204,0.079-4.56,0.195
				L33.003-0.619z"/>
			<path fill="#00A651" d="M29.874,0.511c1.708,0.008,7.645-0.83,7.645-0.83l-4.13,0.912c-1.788-0.137-3.138-0.463-4.945-0.471
				L29.874,0.511z"/>
			<path fill="#00A651" d="M17.683,1.69c1.533-0.873,8.572-4.93,8.572-4.93l-4.998,2.525c-2.022,1.084-2.705,2.551-4.328,3.475
				L17.683,1.69z"/>
			<path fill="#00A651" d="M15.312,1.829c1.533-0.874,8.573-4.93,8.573-4.93l-4.999,2.525c-2.022,1.083-2.705,2.55-4.328,3.475
				L15.312,1.829z"/>
			<path fill="#00A651" d="M19.67,3.057c1.452,0.17,9.719,0.986,9.719,0.986l-5.24-0.007c-1.871-0.181-4.066-1.279-5.604-1.459
				L19.67,3.057z"/>
			<path fill="#00A651" d="M17.654,4.065c1.658,0.16,9.295,0.937,9.295,0.937l-5.242-0.249C19.556,4.6,18.268,3.61,16.513,3.44
				L17.654,4.065z"/>
		</g>
		<g>
			<path fill="#00A651" d="M-16.823,0.146C-9.209,6.411-2.933,16.13-2.933,16.13C-7.012,7.951-10.858,4.172-17.184-1.957
				L-16.823,0.146z"/>
			<path fill="#00A651" d="M-12.52,5.146c0.525,1.819,3.334,9.083,3.334,9.083l-2.402-4.317c-0.747-2.303-0.128-4.646-0.684-6.572
				L-12.52,5.146z"/>
			<path fill="#00A651" d="M-9.624,9.226c0.525,1.82,2.619,7.841,2.619,7.841l-0.904-3.041c-0.317-2-0.91-4.68-1.466-6.607
				L-9.624,9.226z"/>
			<path fill="#00A651" d="M-6.292,12.74c0.347,1.105,3.232,5.043,3.232,5.043l-2.078-2.134c-0.193-1.219-0.574-2.851-0.942-4.02
				L-6.292,12.74z"/>
			<path fill="#00A651" d="M-3.331,16.217c0.621,0.89,2.957,4.768,2.957,4.768l-1.453-2.718c-0.411-1.018-1.138-2.356-1.795-3.298
				L-3.331,16.217z"/>
			<path fill="#00A651" d="M-8.131,10.474c0.525,1.82,2.619,7.841,2.619,7.841l-1.532-3.821c-0.317-2-0.283-3.901-0.839-5.827
				L-8.131,10.474z"/>
			<path fill="#00A651" d="M-7.835,4.678C-6.617,5.212-2.339,6.66-2.339,6.66l-2.892-1.387c-1.532-0.735-4.224,0.143-5.514-0.423
				L-7.835,4.678z"/>
			<path fill="#00A651" d="M-5.318,7.132c1.641,0.8,5.428,3.405,5.428,3.405l-2.739-1.363C-4.47,8.566-6.913,7.576-8.65,6.73
				L-5.318,7.132z"/>
			<path fill="#00A651" d="M-4.499,12.213c0.928,0.638,3.809,4.579,3.809,4.579l-1.429-2.657c-1.073-0.511-2.477-1.319-3.458-1.994
				L-4.499,12.213z"/>
			<path fill="#00A651" d="M-6.085,9.428c1.358,0.633,5.4,4.059,5.4,4.059l-2.551-2.853c-1.524-0.478-2.852-0.522-4.29-1.192
				L-6.085,9.428z"/>
			<path fill="#00A651" d="M-14.812,3.16c0.525,1.82,2.898,10.24,2.898,10.24l-1.965-5.474c-0.746-2.302-0.128-4.646-0.684-6.572
				L-14.812,3.16z"/>
			<path fill="#00A651" d="M-16.581,2.071c0.525,1.82,2.898,10.24,2.898,10.24l-1.965-5.475c-0.747-2.302-0.128-4.646-0.685-6.572
				L-16.581,2.071z"/>
			<path fill="#00A651" d="M-12.158,1.965c1.284,0.306,8.479,2.256,8.479,2.256l-4.157-1.964c-1.625-0.445-4.232,0.29-5.592-0.033
				L-12.158,1.965z"/>
			<path fill="#00A651" d="M-12.959-0.229c1.441,0.396,8.104,2.166,8.104,2.166l-4.35-1.617c-1.826-0.593-3.627,0.33-5.152-0.09
				L-12.959-0.229z"/>
		</g>
		<g>
			<path fill="#00A651" d="M-1.735,1.377c5.016,5.233,8.85,13.008,8.85,13.008C4.747,7.917,2.253,4.807-1.853-0.243L-1.735,1.377z"
				/>
			<path fill="#00A651" d="M1.003,5.443c0.254,1.415,1.776,7.109,1.776,7.109l-1.427-3.43C0.972,7.327,1.569,5.584,1.3,4.086
				L1.003,5.443z"/>
			<path fill="#00A651" d="M2.798,8.724c0.254,1.416,1.348,6.121,1.348,6.121l-0.443-2.367c-0.093-1.54-0.338-3.614-0.607-5.112
				L2.798,8.724z"/>
			<path fill="#00A651" d="M4.943,11.601c0.174,0.861,1.972,4.033,1.972,4.033l-1.341-1.75c-0.057-0.939-0.22-2.202-0.405-3.113
				L4.943,11.601z"/>
			<path fill="#00A651" d="M6.825,14.427c0.384,0.715,1.793,3.806,1.793,3.806l-0.856-2.156c-0.226-0.799-0.655-1.861-1.062-2.618
				L6.825,14.427z"/>
			<path fill="#00A651" d="M3.781,9.765c0.254,1.416,1.348,6.121,1.348,6.121L4.29,12.887c-0.093-1.54,0.057-2.982-0.212-4.48
				L3.781,9.765z"/>
			<path fill="#00A651" d="M4.377,5.378c0.834,0.481,3.79,1.847,3.79,1.847L6.195,5.992C5.151,5.338,3.172,5.839,2.289,5.329
				L4.377,5.378z"/>
			<path fill="#00A651" d="M6.01,7.399c1.118,0.709,3.647,2.923,3.647,2.923L7.793,9.117C6.52,8.542,4.843,7.639,3.659,6.888
				L6.01,7.399z"/>
			<path fill="#00A651" d="M6.257,11.312c0.62,0.542,2.414,3.716,2.414,3.716l-0.843-2.108c-0.731-0.455-1.679-1.155-2.335-1.729
				L6.257,11.312z"/>
			<path fill="#00A651" d="M5.311,9.096c0.927,0.565,3.583,3.42,3.583,3.42L7.263,10.19c-1.056-0.458-2-0.574-2.981-1.172
				L5.311,9.096z"/>
			<path fill="#00A651" d="M-0.5,3.793c0.254,1.416,1.388,7.961,1.388,7.961l-1.039-4.282c-0.38-1.796,0.217-3.539-0.052-5.037
				L-0.5,3.793z"/>
			<path fill="#00A651" d="M-1.69,2.856c0.254,1.415,1.388,7.961,1.388,7.961l-1.039-4.282c-0.38-1.795,0.217-3.538-0.052-5.036
				L-1.69,2.856z"/>
			<path fill="#00A651" d="M1.472,3.049c0.896,0.312,5.9,2.239,5.9,2.239L4.537,3.539c-1.13-0.44-3.039-0.042-3.988-0.372
				L1.472,3.049z"/>
			<path fill="#00A651" d="M1.047,1.333C2.048,1.724,6.685,3.48,6.685,3.48L3.689,1.981c-1.264-0.562-2.61,0.026-3.67-0.387
				L1.047,1.333z"/>
		</g>
		<g>
			<path fill="#00A651" d="M10.392,4.123c5.328,4.498,9.14,10.947,9.14,10.947c-2.24-5.312-4.853-7.954-9.161-12.247L10.392,4.123z"
				/>
			<path fill="#00A651" d="M13.217,7.543c0.19,1.146,1.525,5.786,1.525,5.786l-1.382-2.828c-0.308-1.457,0.488-2.81,0.287-4.021
				L13.217,7.543z"/>
			<path fill="#00A651" d="M15.027,10.276c0.19,1.146,1.107,4.97,1.107,4.97l-0.34-1.917c0-1.234-0.136-2.905-0.338-4.117
				L15.027,10.276z"/>
			<path fill="#00A651" d="M17.261,12.709c0.139,0.698,1.958,3.344,1.958,3.344l-1.399-1.483c0-0.752-0.099-1.771-0.246-2.51
				L17.261,12.709z"/>
			<path fill="#00A651" d="M19.2,15.085c0.386,0.595,1.771,3.152,1.771,3.152l-0.822-1.775c-0.201-0.652-0.615-1.527-1.024-2.157
				L19.2,15.085z"/>
			<path fill="#00A651" d="M16.069,11.169c0.19,1.146,1.108,4.97,1.108,4.97l-0.746-2.446c0-1.234,0.27-2.375,0.068-3.588
				L16.069,11.169z"/>
			<path fill="#00A651" d="M17.047,7.708c0.912,0.438,4.169,1.718,4.169,1.718l-2.15-1.11c-1.139-0.589-3.417-0.316-4.383-0.78
				L17.047,7.708z"/>
			<path fill="#00A651" d="M18.759,9.426c1.219,0.638,3.934,2.567,3.934,2.567l-2.03-1.082c-1.403-0.542-3.243-1.37-4.533-2.045
				L18.759,9.426z"/>
			<path fill="#00A651" d="M18.771,12.563c0.665,0.472,2.48,3.12,2.48,3.12l-0.811-1.735c-0.798-0.41-1.824-1.03-2.529-1.53
				L18.771,12.563z"/>
			<path fill="#00A651" d="M17.85,10.735c1.012,0.51,3.827,2.958,3.827,2.958l-1.689-1.96c-1.166-0.433-2.228-0.586-3.3-1.127
				L17.85,10.735z"/>
			<path fill="#00A651" d="M11.626,6.13c0.19,1.146,1.026,6.44,1.026,6.44l-0.884-3.482c-0.307-1.457,0.489-2.81,0.287-4.021
				L11.626,6.13z"/>
			<path fill="#00A651" d="M10.342,5.306c0.19,1.146,1.026,6.44,1.026,6.44l-0.883-3.482c-0.308-1.457,0.488-2.81,0.286-4.021
				L10.342,5.306z"/>
			<path fill="#00A651" d="M13.913,5.663c0.995,0.307,6.535,2.167,6.535,2.167l-3.095-1.579c-1.251-0.423-3.442-0.229-4.495-0.553
				L13.913,5.663z"/>
			<path fill="#00A651" d="M13.549,4.267c1.108,0.376,6.244,2.077,6.244,2.077L16.5,4.954c-1.395-0.53-2.961-0.146-4.135-0.545
				L13.549,4.267z"/>
		</g>
		<g>
			<path fill="#00A651" d="M22.362,7.215c9.256,2.037,17.474,6.527,17.474,6.527c-5.58-4.068-10.335-5.475-18.145-7.738
				L22.362,7.215z"/>
			<path fill="#00A651" d="M27.781,9.267c0.816,0.997,4.87,4.805,4.87,4.805l-3.222-2.088c-1.124-1.242-0.74-2.837-1.605-3.892
				L27.781,9.267z"/>
			<path fill="#00A651" d="M31.521,11.089c0.817,0.997,3.916,4.211,3.916,4.211l-1.395-1.66c-0.609-1.158-1.613-2.67-2.479-3.726
				L31.521,11.089z"/>
			<path fill="#00A651" d="M35.671,12.457c0.528,0.599,4.237,2.336,4.237,2.336l-2.581-0.818c-0.371-0.706-1.004-1.622-1.562-2.255
				L35.671,12.457z"/>
			<path fill="#00A651" d="M39.405,13.892c0.804,0.4,3.896,2.232,3.896,2.232l-1.963-1.329c-0.587-0.529-1.565-1.181-2.416-1.604
				L39.405,13.892z"/>
			<path fill="#00A651" d="M33.338,11.5c0.817,0.997,3.916,4.21,3.916,4.21l-2.191-1.99c-0.609-1.159-0.816-2.34-1.681-3.396
				L33.338,11.5z"/>
			<path fill="#00A651" d="M32.921,7.851c1.421,0.037,6.354-0.098,6.354-0.098l-3.388-0.16c-1.795-0.086-4.67,1.104-6.174,1.064
				L32.921,7.851z"/>
			<path fill="#00A651" d="M36.029,8.761c1.925,0.099,6.463,0.797,6.463,0.797l-3.216-0.183c-2.12,0.067-4.959,0.044-6.996-0.061
				L36.029,8.761z"/>
			<path fill="#00A651" d="M37.593,11.701c1.111,0.17,4.817,1.911,4.817,1.911l-1.928-1.296c-1.257-0.058-2.919-0.219-4.096-0.399
				L37.593,11.701z"/>
			<path fill="#00A651" d="M35.475,10.362c1.589,0.064,6.515,1.208,6.515,1.208l-3.198-1.147c-1.754,0.071-3.232,0.363-4.914,0.295
				L35.475,10.362z"/>
			<path fill="#00A651" d="M24.982,8.593c0.816,0.997,4.533,5.624,4.533,5.624l-2.885-2.907c-1.125-1.242-0.74-2.837-1.605-3.892
				L24.982,8.593z"/>
			<path fill="#00A651" d="M22.88,8.346c0.816,0.997,4.533,5.624,4.533,5.624l-2.885-2.907c-1.125-1.242-0.74-2.837-1.605-3.892
				L22.88,8.346z"/>
			<path fill="#00A651" d="M27.773,7.216c1.465-0.12,9.7-0.646,9.7-0.646l-4.866-0.213c-1.861,0.115-4.659,1.196-6.21,1.324
				L27.773,7.216z"/>
			<path fill="#00A651" d="M26.603,6.055c1.65-0.102,9.272-0.611,9.272-0.611L30.84,5.49c-2.103,0.074-3.983,1.076-5.729,1.185
				L26.603,6.055z"/>
		</g>
	</g>
</symbol>
<g id="Background">
</g>
<g id="Guides">
</g>
<g id="Foreground">
</g>
<g id="Primer_plano">
</g>
<g id="Graphic-27">
</g>
<g id="Layer_1">
</g>
<g id="topo">
	<g>
		<g>
			<polygon fill-rule="evenodd" clip-rule="evenodd" fill="#EE2939" points="353.83,243.039 366.596,243.039 380.57,271.305 
				367.805,271.305 			"/>
			<polygon fill-rule="evenodd" clip-rule="evenodd" fill="#EE2939" points="348.829,252.605 356.04,252.605 363.929,268.568 
				356.72,268.568 			"/>
			<polygon fill-rule="evenodd" clip-rule="evenodd" fill="#EE2939" points="292.541,338.776 299.75,338.776 307.636,354.735 
				300.433,354.735 			"/>
			<polygon fill-rule="evenodd" clip-rule="evenodd" fill="#EE2939" points="341.308,268.731 353.83,268.731 367.544,296.466 
				355.018,296.466 			"/>
			<polygon fill-rule="evenodd" clip-rule="evenodd" fill="#EE2939" points="359.008,272.329 365.63,272.329 372.872,286.981 
				366.256,286.981 			"/>
			<polygon fill-rule="evenodd" clip-rule="evenodd" fill="#EE2939" points="331.346,282.343 343.742,282.343 357.31,309.776 
				344.919,309.776 			"/>
			<polygon fill-rule="evenodd" clip-rule="evenodd" fill="#F9C741" points="303.373,311.171 315.944,311.171 329.718,339.025 
				317.138,339.025 			"/>
			<polygon fill-rule="evenodd" clip-rule="evenodd" fill="#EE2939" points="321.725,294.12 334.184,294.12 347.816,321.699 
				335.365,321.699 			"/>
			<polygon fill-rule="evenodd" clip-rule="evenodd" fill="#EE2939" points="293.122,317.633 302.667,317.633 313.118,338.772 
				303.575,338.772 			"/>
			<polygon fill-rule="evenodd" clip-rule="evenodd" fill="#F9C741" points="303.432,341.873 307.499,341.873 311.956,350.878 
				307.89,350.878 			"/>
			<polygon fill-rule="evenodd" clip-rule="evenodd" fill="#F9C741" points="314.298,303.381 318.37,303.381 322.823,312.391 
				318.753,312.391 			"/>
			<polygon fill-rule="evenodd" clip-rule="evenodd" fill="#FBE142" points="322.483,315.684 329.805,315.684 337.826,331.904 
				330.499,331.904 			"/>
		</g>
		<polygon fill-rule="evenodd" clip-rule="evenodd" fill="#EE2939" points="358.103,217.501 372.327,217.501 387.896,249.001 
			373.669,249.001 		"/>
		<polygon fill-rule="evenodd" clip-rule="evenodd" fill="#EE2939" points="377.511,222.336 383.632,222.336 390.335,235.896 
			384.211,235.896 		"/>
		<polygon fill-rule="evenodd" clip-rule="evenodd" fill="#FBE142" points="220.21,223.087 239.504,223.086 260.619,265.809 
			241.33,265.809 		"/>
		<polygon fill-rule="evenodd" clip-rule="evenodd" fill="#F9C741" points="236.553,213.203 250.767,213.203 266.331,244.685 
			252.111,244.685 		"/>
		<polygon fill-rule="evenodd" clip-rule="evenodd" fill="#FBE142" points="254.143,247.019 260.199,247.019 266.831,260.426 
			260.778,260.426 		"/>
		<polygon fill-rule="evenodd" clip-rule="evenodd" fill="#FBE142" points="211.988,241.961 226.466,241.961 242.304,274.011 
			227.834,274.011 		"/>
		<polygon fill-rule="evenodd" clip-rule="evenodd" fill="#E4CC3C" points="210.021,260.3 216.901,260.301 224.432,275.535 
			217.55,275.535 		"/>
		<polygon fill-rule="evenodd" clip-rule="evenodd" fill="#FBE142" points="195.312,253.97 203.542,253.97 212.559,272.199 
			204.325,272.199 		"/>
		<polygon fill-rule="evenodd" clip-rule="evenodd" fill="#FBE142" points="197.785,238.117 206.894,238.117 216.87,258.286 
			207.76,258.286 		"/>
		<polygon fill-rule="evenodd" clip-rule="evenodd" fill="#F9C741" points="261.464,228.379 270.572,228.379 280.543,248.551 
			271.434,248.551 		"/>
		<polygon fill-rule="evenodd" clip-rule="evenodd" fill="#EE2939" points="355.406,229.395 360.419,229.395 365.907,240.495 
			360.896,240.495 		"/>
		<polygon fill-rule="evenodd" clip-rule="evenodd" fill="#FBE142" points="169.722,328.224 189.685,328.224 211.535,372.43 
			191.57,372.43 		"/>
		<polygon fill-rule="evenodd" clip-rule="evenodd" fill="#EE2939" points="270.694,223.965 277.577,223.965 285.11,239.198 
			278.227,239.198 		"/>
		<polygon fill-rule="evenodd" clip-rule="evenodd" fill="#FBE142" points="190.806,201.857 207.464,201.857 225.709,238.757 
			209.047,238.756 		"/>
		<polygon fill-rule="evenodd" clip-rule="evenodd" fill="#FBE142" points="235.903,178.933 254.825,178.933 275.532,220.831 
			256.617,220.831 		"/>
		<polygon fill-rule="evenodd" clip-rule="evenodd" fill="#F9C741" points="218.073,11.263 230.641,11.262 244.403,39.098 
			231.836,39.098 		"/>
		<polygon fill-rule="evenodd" clip-rule="evenodd" fill="#FBE142" points="200.538,345.005 214.479,345.005 229.737,375.869 
			215.799,375.869 		"/>
		<polygon fill-rule="evenodd" clip-rule="evenodd" fill="#EE2939" points="365.577,162.415 378.757,162.415 393.181,191.589 
			380.005,191.589 		"/>
		<polygon fill-rule="evenodd" clip-rule="evenodd" fill="#231F20" points="80.89,188.854 99.789,188.854 120.487,230.712 
			101.583,230.712 		"/>
		<polygon fill-rule="evenodd" clip-rule="evenodd" fill="#F9C741" points="244.549,150.615 268.641,150.615 295.018,203.963 
			270.922,203.963 		"/>
		<polygon fill-rule="evenodd" clip-rule="evenodd" fill="#EE2939" points="271.61,151.012 280.598,151.012 290.437,170.906 
			281.449,170.906 		"/>
		<polygon fill-rule="evenodd" clip-rule="evenodd" fill="#EE2939" points="282.765,174.283 288.021,174.283 293.775,185.921 
			288.52,185.921 		"/>
		<polygon fill-rule="evenodd" clip-rule="evenodd" fill="#EE2939" points="271.964,206.364 280.897,206.364 290.675,226.143 
			281.744,226.143 		"/>
		<polygon fill-rule="evenodd" clip-rule="evenodd" fill="#F9C741" points="283.985,205.829 288.394,205.829 293.214,215.586 
			288.815,215.586 		"/>
		<polygon fill-rule="evenodd" clip-rule="evenodd" fill="#FBE142" points="212.621,334.899 230.252,334.899 249.556,373.947 
			231.925,373.947 		"/>
		<polygon fill-rule="evenodd" clip-rule="evenodd" fill="#231F20" points="173.768,355.14 180.073,355.14 186.981,369.1 
			180.674,369.1 		"/>
		<polygon fill-rule="evenodd" clip-rule="evenodd" fill="#FBE142" points="194.201,331.276 198.753,331.276 203.739,341.355 
			199.187,341.355 		"/>
		<polygon fill-rule="evenodd" clip-rule="evenodd" fill="#FBE142" points="203.014,333.19 207.333,333.19 212.065,342.758 
			207.747,342.758 		"/>
		<polygon fill-rule="evenodd" clip-rule="evenodd" fill="#231F20" points="84.285,234.341 109.363,234.341 136.831,289.886 
			111.747,289.886 		"/>
		<polygon fill-rule="evenodd" clip-rule="evenodd" fill="#231F20" points="76.411,208.326 87.098,208.326 98.798,231.986 
			88.114,231.986 		"/>
		<polygon fill-rule="evenodd" clip-rule="evenodd" fill="#231F20" points="74.433,240.667 84.35,240.667 95.214,262.63 
			85.298,262.63 		"/>
		<polygon fill-rule="evenodd" clip-rule="evenodd" fill="#231F20" points="153.653,341.335 164.118,341.335 175.577,364.51 
			165.116,364.51 		"/>
		<polygon fill-rule="evenodd" clip-rule="evenodd" fill="#FBE142" points="162.254,334.069 170.293,334.069 179.107,351.88 
			171.064,351.88 		"/>
		<polygon fill-rule="evenodd" clip-rule="evenodd" fill="#231F20" points="79.745,269.801 96.664,269.801 115.192,307.261 
			98.273,307.261 		"/>
		<polygon fill-rule="evenodd" clip-rule="evenodd" fill="#E4CC3C" points="148.992,310.38 158.384,310.38 168.662,331.167 
			159.28,331.167 		"/>
		<polygon fill-rule="evenodd" clip-rule="evenodd" fill="#AE9C2E" points="110.65,293.037 117.01,293.037 123.978,307.125 
			117.618,307.125 		"/>
		<polygon fill-rule="evenodd" clip-rule="evenodd" fill="#AE9C2E" points="108.136,200.352 115.09,200.352 122.706,215.747 
			115.756,215.747 		"/>
		<polygon fill-rule="evenodd" clip-rule="evenodd" fill="#FBE142" points="189.365,257.127 194.291,257.127 199.692,268.041 
			194.765,268.041 		"/>
		<polygon fill-rule="evenodd" clip-rule="evenodd" fill="#FBE142" points="174.183,221.394 187.012,221.394 201.062,249.797 
			188.234,249.797 		"/>
		<polygon fill-rule="evenodd" clip-rule="evenodd" fill="#E4CC3C" points="174.417,241.935 180.699,241.935 187.585,255.845 
			181.301,255.845 		"/>
		<polygon fill-rule="evenodd" clip-rule="evenodd" fill="#FBE142" points="187.177,216.487 195.657,216.487 204.938,235.258 
			196.468,235.258 		"/>
		<polygon fill-rule="evenodd" clip-rule="evenodd" fill="#FBE142" points="172.466,230.376 176.468,230.376 180.854,239.239 
			176.854,239.239 		"/>
		<polygon fill-rule="evenodd" clip-rule="evenodd" fill="#AE9C2E" points="183.395,205.741 187.29,205.57 191.554,213.994 
			187.663,214.164 		"/>
		<polygon fill-rule="evenodd" clip-rule="evenodd" fill="#FBE142" points="178.143,211.367 181.918,211.204 186.062,219.383 
			182.282,219.546 		"/>
		<polygon fill-rule="evenodd" clip-rule="evenodd" fill="#FBE142" points="159.134,110.606 179.154,110.606 201.077,154.942 
			181.051,154.942 		"/>
		<polygon fill-rule="evenodd" clip-rule="evenodd" fill="#231F20" points="91.385,163.179 106.103,163.179 122.225,195.777 
			107.502,195.777 		"/>
		<polygon fill-rule="evenodd" clip-rule="evenodd" fill="#231F20" points="122.693,293.766 136.135,293.766 150.856,323.535 
			137.414,323.535 		"/>
		<polygon fill-rule="evenodd" clip-rule="evenodd" fill="#231F20" points="102.957,310.439 109.741,310.439 117.172,325.456 
			110.39,325.456 		"/>
		<polygon fill-rule="evenodd" clip-rule="evenodd" fill="#E4CC3C" points="114.405,313.121 127.373,313.121 141.579,341.839 
			128.611,341.839 		"/>
		<polygon fill-rule="evenodd" clip-rule="evenodd" fill="#FBE142" points="142.634,340.945 149.995,340.945 158.061,357.243 
			150.7,357.243 		"/>
		<polygon fill-rule="evenodd" clip-rule="evenodd" fill="#FBE142" points="211.687,130.289 231.883,130.289 253.995,175.014 
			233.799,175.014 		"/>
		<polygon fill-rule="evenodd" clip-rule="evenodd" fill="#231F20" points="112.032,165.623 122.388,165.623 133.732,188.566 
			123.373,188.566 		"/>
		<polygon fill-rule="evenodd" clip-rule="evenodd" fill="#231F20" points="121.396,130.857 137.604,130.857 155.349,166.742 
			139.146,166.742 		"/>
		<polygon fill-rule="evenodd" clip-rule="evenodd" fill="#231F20" points="102.39,149.397 108.423,149.397 115.031,162.755 
			109,162.755 		"/>
		<polygon fill-rule="evenodd" clip-rule="evenodd" fill="#FBE142" points="196.611,139.787 204.817,139.787 213.807,157.963 
			205.597,157.963 		"/>
		<polygon fill-rule="evenodd" clip-rule="evenodd" fill="#FBE142" points="210.866,147.623 218.053,147.623 225.938,163.552 
			218.746,163.552 		"/>
		<polygon fill-rule="evenodd" clip-rule="evenodd" fill="#EE2939" points="303.673,54.763 322.837,54.763 343.814,97.196 
			324.652,97.196 		"/>
		<polygon fill-rule="evenodd" clip-rule="evenodd" fill="#F9C741" points="270.615,328.098 284.271,328.098 299.222,358.328 
			285.567,358.328 		"/>
		<polygon fill-rule="evenodd" clip-rule="evenodd" fill="#FBE142" points="232.922,335.276 240.132,335.276 248.021,351.233 
			240.817,351.233 		"/>
		<polygon fill-rule="evenodd" clip-rule="evenodd" fill="#FBE142" points="180.275,106.14 193.457,106.14 207.881,135.315 
			194.707,135.315 		"/>
		<polygon fill-rule="evenodd" clip-rule="evenodd" fill="#FBE142" points="233.4,126.262 243.054,126.262 253.622,147.635 
			243.972,147.635 		"/>
		<polygon fill-rule="evenodd" clip-rule="evenodd" fill="#FBE142" points="248.009,126.262 257.659,126.262 268.227,147.635 
			258.576,147.635 		"/>
		<polygon fill-rule="evenodd" clip-rule="evenodd" fill="#EE2939" points="266.209,137.954 270.559,137.954 275.328,147.593 
			270.979,147.593 		"/>
		<polygon fill-rule="evenodd" clip-rule="evenodd" fill="#FBE142" points="197.037,105.727 206.289,105.727 216.425,126.214 
			207.169,126.213 		"/>
		<polygon fill-rule="evenodd" clip-rule="evenodd" fill="#FBE142" points="211.185,108.656 219.854,108.656 229.354,127.851 
			220.684,127.851 		"/>
		<polygon fill-rule="evenodd" clip-rule="evenodd" fill="#FBE142" points="226.05,111.992 231.591,111.991 237.659,124.256 
			232.122,124.256 		"/>
		<polygon fill-rule="evenodd" clip-rule="evenodd" fill="#FBE142" points="239.179,117.039 242.772,117.039 246.718,125.005 
			243.12,125.005 		"/>
		<polygon fill-rule="evenodd" clip-rule="evenodd" fill="#231F20" points="131.94,172.492 135.542,172.492 139.484,180.457 
			135.883,180.457 		"/>
		<polygon fill-rule="evenodd" clip-rule="evenodd" fill="#231F20" points="117.708,148.881 126.898,148.881 136.961,169.225 
			127.773,169.225 		"/>
		<polygon fill-rule="evenodd" clip-rule="evenodd" fill="#231F20" points="115.144,135.975 119.163,135.975 123.575,144.88 
			119.556,144.88 		"/>
		<polygon fill-rule="evenodd" clip-rule="evenodd" fill="#FBE142" points="136.026,120.632 140.574,120.632 145.568,130.71 
			141.014,130.71 		"/>
		<polygon fill-rule="evenodd" clip-rule="evenodd" fill="#AE9C2E" points="142.195,133.051 154.499,133.051 167.971,160.289 
			155.671,160.289 		"/>
		<polygon fill-rule="evenodd" clip-rule="evenodd" fill="#E4CC3C" points="148.195,114.409 157.336,114.409 167.348,134.645 
			158.209,134.645 		"/>
		<polygon fill-rule="evenodd" clip-rule="evenodd" fill="#FBE142" points="159.781,138.437 167.891,138.437 176.774,156.397 
			168.671,156.397 		"/>
		<polygon fill-rule="evenodd" clip-rule="evenodd" fill="#FBE142" points="242.238,334.958 252.022,334.958 262.741,356.618 
			252.959,356.618 		"/>
		<polygon fill-rule="evenodd" clip-rule="evenodd" fill="#E4CC3C" points="242.839,355.918 249.942,355.918 257.727,371.649 
			250.619,371.649 		"/>
		<polygon fill-rule="evenodd" clip-rule="evenodd" fill="#EE2939" points="358.755,126.581 373.434,126.581 389.503,159.083 
			374.827,159.083 		"/>
		<polygon fill-rule="evenodd" clip-rule="evenodd" fill="#EE2939" points="348.621,135.624 359.781,135.624 372.007,160.343 
			360.843,160.343 		"/>
		<polygon fill-rule="evenodd" clip-rule="evenodd" fill="#EE2939" points="356.843,167.167 364.982,167.167 373.897,185.188 
			365.758,185.188 		"/>
		<polygon fill-rule="evenodd" clip-rule="evenodd" fill="#EE2939" points="337.018,77.419 348.633,77.419 361.352,103.135 
			349.74,103.135 		"/>
		<polygon fill-rule="evenodd" clip-rule="evenodd" fill="#EE2939" points="333.958,104.052 345.681,104.052 358.517,130.005 
			346.794,130.005 		"/>
		<polygon fill-rule="evenodd" clip-rule="evenodd" fill="#231F20" points="8.407,123.977 12.576,123.977 17.138,133.2 
			12.971,133.2 		"/>
		<polygon fill-rule="evenodd" clip-rule="evenodd" fill="#231F20" points="59.175,65.389 64.042,65.389 69.375,76.167 
			64.507,76.167 		"/>
		<polygon fill-rule="evenodd" clip-rule="evenodd" fill="#231F20" points="17.329,105.826 22.794,105.826 28.784,117.931 
			23.315,117.931 		"/>
		<polygon fill-rule="evenodd" clip-rule="evenodd" fill="#AE9C2E" points="61.725,55.073 68.846,55.073 76.652,70.847 
			69.529,70.847 		"/>
		<polygon fill-rule="evenodd" clip-rule="evenodd" fill="#E4CC3C" points="108.254,26.473 116.474,26.473 125.488,44.69 
			117.267,44.69 		"/>
		<polygon fill-rule="evenodd" clip-rule="evenodd" fill="#FBE142" points="240.106,25.394 248.853,25.394 258.44,44.765 
			249.692,44.765 		"/>
		<polygon fill-rule="evenodd" clip-rule="evenodd" fill="#F9C741" points="263.47,25.494 279.231,25.494 296.493,60.393 
			280.733,60.393 		"/>
		<polygon fill-rule="evenodd" clip-rule="evenodd" fill="#F9C741" points="297.3,61.686 304.765,61.686 312.941,78.219 
			305.476,78.219 		"/>
		<polygon fill-rule="evenodd" clip-rule="evenodd" fill="#EE2939" points="360.971,107.505 368.438,107.505 376.617,124.036 
			369.153,124.036 		"/>
		<polygon fill-rule="evenodd" clip-rule="evenodd" fill="#F9C741" points="350.091,106.388 357.608,106.388 365.848,123.039 
			358.327,123.039 		"/>
		<polygon fill-rule="evenodd" clip-rule="evenodd" fill="#FBE142" points="285.438,33.139 292.953,33.139 301.194,49.789 
			293.671,49.789 		"/>
		<polygon fill-rule="evenodd" clip-rule="evenodd" fill="#EE2939" points="301.095,40.32 305.608,40.32 310.545,50.303 
			306.036,50.303 		"/>
		<polygon fill-rule="evenodd" clip-rule="evenodd" fill="#EE2939" points="359.023,203.125 363.53,203.125 368.476,213.109 
			363.964,213.109 		"/>
		<polygon fill-rule="evenodd" clip-rule="evenodd" fill="#231F20" points="117.169,22.119 126.229,22.119 136.147,42.179 
			127.087,42.179 		"/>
		<polygon fill-rule="evenodd" clip-rule="evenodd" fill="#F9C741" points="254.611,332.519 269.245,332.519 285.265,364.922 
			270.633,364.922 		"/>
		<polygon fill-rule="evenodd" clip-rule="evenodd" fill="#FBE142" points="255.734,359.613 260.702,359.613 266.145,370.61 
			261.179,370.61 		"/>
		<polygon fill-rule="evenodd" clip-rule="evenodd" fill="#F9C741" points="284.354,322.422 290.137,322.422 296.478,335.234 
			290.688,335.234 		"/>
		<polygon fill-rule="evenodd" clip-rule="evenodd" fill="#FBE142" points="233.383,12.199 237.921,12.199 242.888,22.228 
			238.349,22.228 		"/>
		<polygon fill-rule="evenodd" clip-rule="evenodd" fill="#231F20" points="25.803,95.557 31.181,95.557 37.071,107.464 
			31.692,107.464 		"/>
		<polygon fill-rule="evenodd" clip-rule="evenodd" fill="#231F20" points="126.981,19.234 132.365,19.234 138.254,31.141 
			132.876,31.141 		"/>
		<polygon fill-rule="evenodd" clip-rule="evenodd" fill="#FBE142" points="209.006,9.498 214.382,9.498 220.271,21.405 
			214.899,21.404 		"/>
		<polygon fill-rule="evenodd" clip-rule="evenodd" fill="#E4CC3C" points="133.369,16.886 142.817,16.886 153.168,37.811 
			143.725,37.811 		"/>
		<polygon fill-rule="evenodd" clip-rule="evenodd" fill="#231F20" points="135.13,33.95 137.731,33.95 140.588,39.715 
			137.986,39.715 		"/>
		<polygon fill-rule="evenodd" clip-rule="evenodd" fill="#231F20" points="135.13,33.95 137.731,33.95 140.588,39.715 
			137.986,39.715 		"/>
		<polygon fill-rule="evenodd" clip-rule="evenodd" fill="#FBE142" points="214.619,23.089 220.637,23.089 227.233,36.415 
			221.216,36.415 		"/>
		<polygon fill-rule="evenodd" clip-rule="evenodd" fill="#FBE142" points="196.172,10.703 206.732,10.703 218.287,34.074 
			207.737,34.073 		"/>
		<polygon fill-rule="evenodd" clip-rule="evenodd" fill="#231F20" points="24.876,105.453 28.434,105.453 32.33,113.326 
			28.774,113.326 		"/>
		<polygon fill-rule="evenodd" clip-rule="evenodd" fill="#231F20" points="14.388,111.095 17.938,111.095 21.837,118.969 
			18.283,118.969 		"/>
		<polygon fill-rule="evenodd" clip-rule="evenodd" fill="#231F20" points="52.156,64.193 55.717,64.193 59.614,72.068 
			56.061,72.068 		"/>
		<polygon fill-rule="evenodd" clip-rule="evenodd" fill="#231F20" points="47.037,69.167 53.2,69.167 59.95,82.806 53.791,82.806 
					"/>
		<polygon fill-rule="evenodd" clip-rule="evenodd" fill="#231F20" points="68.533,49.629 72.089,49.629 75.988,57.502 
			72.435,57.502 		"/>
		<polygon fill-rule="evenodd" clip-rule="evenodd" fill="#FBE142" points="150.116,28.09 153.669,28.09 157.57,35.965 
			154.015,35.965 		"/>
		<polygon fill-rule="evenodd" clip-rule="evenodd" fill="#231F20" points="47.597,80.33 51.149,80.33 55.053,88.206 51.493,88.206 
					"/>
		<polygon fill-rule="evenodd" clip-rule="evenodd" fill="#231F20" points="149.029,14.71 157.777,14.71 167.362,34.079 
			158.617,34.079 		"/>
		<polygon fill-rule="evenodd" clip-rule="evenodd" fill="#EE2939" points="262.613,40.988 267.844,40.988 273.573,52.566 
			268.343,52.566 		"/>
		<polygon fill-rule="evenodd" clip-rule="evenodd" fill="#F9C741" points="247.659,17.227 257.204,17.227 267.663,38.364 
			258.119,38.364 		"/>
		<polygon fill-rule="evenodd" clip-rule="evenodd" fill="#EE2939" points="382.423,163.092 386.967,163.092 391.938,173.139 
			387.402,173.139 		"/>
		<polygon fill-rule="evenodd" clip-rule="evenodd" fill="#FBE142" points="193.49,20.998 199.37,20.998 205.811,34.02 
			199.934,34.02 		"/>
		<polygon fill-rule="evenodd" clip-rule="evenodd" fill="#FBE142" points="158.582,11.773 165.26,11.773 172.578,26.558 
			165.902,26.558 		"/>
		<polygon fill-rule="evenodd" clip-rule="evenodd" fill="#FBE142" points="174.551,10.046 185.105,10.046 196.666,33.415 
			186.111,33.415 		"/>
		<polygon fill-rule="evenodd" clip-rule="evenodd" fill="#FBE142" points="170.386,18.227 177.062,18.227 184.38,33.015 
			177.708,33.015 		"/>
		<polygon fill-rule="evenodd" clip-rule="evenodd" fill="#FBE142" points="187.329,8.199 190.555,8.199 194.085,15.337 
			190.864,15.337 		"/>
		<polygon fill-rule="evenodd" clip-rule="evenodd" fill="#231F20" points="74.32,59.769 77.54,59.769 81.07,66.906 77.855,66.906 
					"/>
		<polygon fill-rule="evenodd" clip-rule="evenodd" fill="#231F20" points="75.526,45.182 78.748,45.182 82.283,52.318 
			79.059,52.318 		"/>
		<polygon fill-rule="evenodd" clip-rule="evenodd" fill="#231F20" points="80.009,42.106 87.094,42.106 94.858,57.793 
			87.773,57.793 		"/>
		<polygon fill-rule="evenodd" clip-rule="evenodd" fill="#231F20" points="87.513,36.934 95.129,36.934 103.477,53.798 
			95.863,53.798 		"/>
		<polygon fill-rule="evenodd" clip-rule="evenodd" fill="#231F20" points="32.724,91.662 37.167,91.662 42.041,101.501 
			37.597,101.501 		"/>
		<polygon fill-rule="evenodd" clip-rule="evenodd" fill="#E4CC3C" points="95.173,33.032 101.076,33.032 107.539,46.103 
			101.64,46.103 		"/>
		<polygon fill-rule="evenodd" clip-rule="evenodd" fill="#231F20" points="104.431,33.987 110.332,33.987 116.8,47.06 
			110.896,47.06 		"/>
		<polygon fill-rule="evenodd" clip-rule="evenodd" fill="#231F20" points="35.794,80.708 39.352,80.708 43.249,88.583 
			39.694,88.583 		"/>
		<polygon fill-rule="evenodd" clip-rule="evenodd" fill="#E4CC3C" points="40.947,80.282 45.925,80.283 51.383,91.311 
			46.405,91.311 		"/>
		<polygon fill-rule="evenodd" clip-rule="evenodd" fill="#231F20" points="39.267,93.116 41.685,93.116 44.333,98.468 
			41.919,98.468 		"/>
		<polygon fill-rule="evenodd" clip-rule="evenodd" fill="#231F20" points="43.271,72.689 45.69,72.689 48.339,78.043 
			45.925,78.043 		"/>
		<polygon fill-rule="evenodd" clip-rule="evenodd" fill="#EE2939" points="360.162,188.566 374.39,188.566 389.96,220.062 
			375.738,220.062 		"/>
		<polygon fill-rule="evenodd" clip-rule="evenodd" fill="#EE2939" points="381.078,196.119 387.2,196.119 393.901,209.675 
			387.777,209.675 		"/>
		<polygon fill-rule="evenodd" clip-rule="evenodd" fill="#FBE142" points="147.535,325.202 153.836,325.202 160.743,339.164 
			154.438,339.164 		"/>
		<polygon fill-rule="evenodd" clip-rule="evenodd" fill="#FBE142" points="138.364,325.671 143.937,325.671 150.046,338.02 
			144.466,338.02 		"/>
		<polygon fill-rule="evenodd" clip-rule="evenodd" fill="#231F20" points="77.552,54.631 81.539,54.631 85.912,63.458 
			81.925,63.458 		"/>
		<polygon fill-rule="evenodd" clip-rule="evenodd" fill="#231F20" points="58.098,74.804 60.516,74.804 63.165,80.155 
			60.747,80.155 		"/>
		<polygon fill-rule="evenodd" clip-rule="evenodd" fill="#231F20" points="6.689,129.106 9.14,129.106 11.834,134.539 
			9.377,134.539 		"/>
		<polygon fill-rule="evenodd" clip-rule="evenodd" fill="#231F20" points="15.288,124.699 17.488,124.699 19.896,129.565 
			17.701,129.565 		"/>
		<polygon fill-rule="evenodd" clip-rule="evenodd" fill="#231F20" points="18.333,120.772 20.53,120.772 22.939,125.638 
			20.739,125.638 		"/>
		<polygon fill-rule="evenodd" clip-rule="evenodd" fill="#FBE142" points="142.363,117.338 145.675,117.338 149.304,124.668 
			145.993,124.668 		"/>
		<polygon fill-rule="evenodd" clip-rule="evenodd" fill="#231F20" points="74.362,226.139 78.335,226.139 82.693,234.947 
			78.72,234.947 		"/>
		<polygon fill-rule="evenodd" clip-rule="evenodd" fill="#231F20" points="86.774,174.167 91.692,174.167 97.082,185.059 
			92.164,185.059 		"/>
		<polygon fill-rule="evenodd" clip-rule="evenodd" fill="#F3743D" points="330.515,63.206 335.023,63.206 339.966,73.19 
			335.455,73.19 		"/>
		<polygon fill-rule="evenodd" clip-rule="evenodd" fill="#231F20" points="33.183,84.583 35.6,84.583 38.25,89.933 35.837,89.933 
					"/>
		<polygon fill-rule="evenodd" clip-rule="evenodd" fill="#231F20" points="11.316,116.51 14.174,116.51 17.301,122.833 
			14.452,122.833 		"/>
		<polygon fill-rule="evenodd" clip-rule="evenodd" fill="#231F20" points="21.997,98.589 24.191,98.589 26.605,103.455 
			24.406,103.455 		"/>
		<polygon fill-rule="evenodd" clip-rule="evenodd" fill="#231F20" points="43.659,91.663 45.285,91.663 47.068,95.264 
			45.44,95.264 		"/>
		<polygon fill-rule="evenodd" clip-rule="evenodd" fill="#231F20" points="59.108,57.59 61.526,57.59 64.174,62.943 61.764,62.943 
					"/>
		<polygon fill-rule="evenodd" clip-rule="evenodd" fill="#231F20" points="56.044,60.401 57.669,60.401 59.451,63.998 
			57.828,63.998 		"/>
		<polygon fill-rule="evenodd" clip-rule="evenodd" fill="#231F20" points="28.207,90.095 29.997,90.095 31.954,94.053 
			30.164,94.053 		"/>
	</g>
	<g>
		<path fill="#404040" d="M352.792,392.056c0,0.754-0.273,1.342-0.82,1.764s-1.289,0.633-2.227,0.633
			c-1.016,0-1.797-0.131-2.344-0.393v-0.961c0.352,0.148,0.734,0.266,1.148,0.352s0.824,0.129,1.23,0.129
			c0.664,0,1.164-0.126,1.5-0.378s0.504-0.603,0.504-1.052c0-0.297-0.059-0.54-0.178-0.729s-0.318-0.364-0.598-0.524
			s-0.705-0.342-1.275-0.545c-0.797-0.285-1.365-0.623-1.707-1.014s-0.514-0.9-0.514-1.529c0-0.66,0.248-1.186,0.744-1.576
			s1.152-0.586,1.969-0.586c0.852,0,1.635,0.156,2.35,0.469l-0.311,0.867c-0.707-0.297-1.395-0.445-2.062-0.445
			c-0.527,0-0.939,0.113-1.236,0.34s-0.445,0.541-0.445,0.943c0,0.297,0.055,0.54,0.164,0.729s0.295,0.363,0.555,0.521
			s0.656,0.333,1.191,0.524c0.898,0.32,1.518,0.664,1.855,1.031S352.792,391.47,352.792,392.056z"/>
		<path fill="#404040" d="M357.267,394.452c-0.418,0-0.801-0.077-1.146-0.231s-0.635-0.392-0.869-0.712h-0.07
			c0.047,0.375,0.07,0.73,0.07,1.066v2.643h-0.973v-9.305h0.791l0.135,0.879h0.047c0.25-0.352,0.541-0.605,0.873-0.762
			s0.713-0.234,1.143-0.234c0.852,0,1.508,0.291,1.971,0.873s0.695,1.398,0.695,2.449c0,1.055-0.236,1.874-0.707,2.458
			S358.103,394.452,357.267,394.452z M357.126,388.622c-0.656,0-1.131,0.182-1.424,0.545s-0.443,0.941-0.451,1.734v0.217
			c0,0.902,0.15,1.548,0.451,1.937s0.783,0.583,1.447,0.583c0.555,0,0.988-0.225,1.303-0.674s0.473-1.068,0.473-1.857
			c0-0.801-0.158-1.415-0.473-1.843S357.696,388.622,357.126,388.622z"/>
		<path fill="#404040" d="M367.054,391.118c0,1.047-0.264,1.864-0.791,2.452s-1.256,0.882-2.186,0.882
			c-0.574,0-1.084-0.135-1.529-0.404s-0.789-0.656-1.031-1.16s-0.363-1.094-0.363-1.77c0-1.047,0.262-1.862,0.785-2.446
			s1.25-0.876,2.18-0.876c0.898,0,1.612,0.299,2.142,0.896S367.054,390.099,367.054,391.118z M362.161,391.118
			c0,0.82,0.164,1.445,0.492,1.875s0.811,0.645,1.447,0.645s1.12-0.214,1.45-0.642s0.495-1.054,0.495-1.878
			c0-0.816-0.165-1.437-0.495-1.86s-0.817-0.636-1.462-0.636c-0.637,0-1.117,0.209-1.441,0.627S362.161,390.29,362.161,391.118z"/>
		<path fill="#404040" d="M373.034,394.335v-4.154c0-0.523-0.119-0.914-0.357-1.172s-0.611-0.387-1.119-0.387
			c-0.672,0-1.164,0.182-1.477,0.545s-0.469,0.963-0.469,1.799v3.369h-0.973v-6.422h0.791l0.158,0.879h0.047
			c0.199-0.316,0.479-0.562,0.838-0.735s0.76-0.261,1.201-0.261c0.773,0,1.355,0.187,1.746,0.56s0.586,0.97,0.586,1.79v4.189
			H373.034z"/>
		<path fill="#404040" d="M380.026,392.583c0,0.598-0.223,1.059-0.668,1.383s-1.07,0.486-1.875,0.486
			c-0.852,0-1.516-0.135-1.992-0.404v-0.902c0.309,0.156,0.641,0.279,0.994,0.369s0.693,0.135,1.021,0.135
			c0.508,0,0.898-0.081,1.172-0.243s0.41-0.409,0.41-0.741c0-0.25-0.107-0.464-0.324-0.642s-0.641-0.388-1.27-0.63
			c-0.598-0.223-1.021-0.417-1.273-0.583s-0.439-0.354-0.562-0.565s-0.186-0.463-0.186-0.756c0-0.523,0.213-0.937,0.639-1.239
			s1.01-0.454,1.752-0.454c0.691,0,1.367,0.141,2.027,0.422l-0.346,0.791c-0.645-0.266-1.229-0.398-1.752-0.398
			c-0.461,0-0.809,0.072-1.043,0.217s-0.352,0.344-0.352,0.598c0,0.172,0.045,0.318,0.133,0.439s0.229,0.236,0.424,0.346
			s0.57,0.268,1.125,0.475c0.762,0.277,1.277,0.557,1.545,0.838S380.026,392.157,380.026,392.583z"/>
		<path fill="#404040" d="M387.032,391.118c0,1.047-0.264,1.864-0.791,2.452s-1.256,0.882-2.186,0.882
			c-0.574,0-1.084-0.135-1.529-0.404s-0.789-0.656-1.031-1.16s-0.363-1.094-0.363-1.77c0-1.047,0.262-1.862,0.785-2.446
			s1.25-0.876,2.18-0.876c0.898,0,1.611,0.299,2.141,0.896S387.032,390.099,387.032,391.118z M382.14,391.118
			c0,0.82,0.164,1.445,0.492,1.875s0.811,0.645,1.447,0.645s1.119-0.214,1.449-0.642s0.496-1.054,0.496-1.878
			c0-0.816-0.166-1.437-0.496-1.86s-0.816-0.636-1.461-0.636c-0.637,0-1.117,0.209-1.441,0.627S382.14,390.29,382.14,391.118z"/>
		<path fill="#404040" d="M391.546,387.796c0.285,0,0.541,0.023,0.768,0.07l-0.135,0.902c-0.266-0.059-0.5-0.088-0.703-0.088
			c-0.52,0-0.963,0.211-1.332,0.633s-0.555,0.947-0.555,1.576v3.445h-0.973v-6.422h0.803l0.111,1.189h0.047
			c0.238-0.418,0.525-0.74,0.861-0.967S391.144,387.796,391.546,387.796z"/>
		<path fill="#404040" d="M393.255,388.54c0-0.527,0.23-0.791,0.691-0.791c0.48,0,0.721,0.264,0.721,0.791
			c0,0.254-0.064,0.449-0.193,0.586s-0.305,0.205-0.527,0.205c-0.199,0-0.364-0.062-0.495-0.185S393.255,388.821,393.255,388.54z
			 M393.255,393.714c0-0.262,0.06-0.46,0.179-0.595s0.29-0.202,0.513-0.202c0.227,0,0.403,0.067,0.53,0.202s0.19,0.333,0.19,0.595
			c0,0.254-0.064,0.449-0.193,0.586s-0.305,0.205-0.527,0.205c-0.199,0-0.364-0.062-0.495-0.185S393.255,393.995,393.255,393.714z"
			/>
	</g>
	<g>
		<path fill="#F78E1E" d="M379.849,414.719c0,1.424,1.148,2.571,2.57,2.571c1.42,0,2.572-1.147,2.572-2.571
			c0-1.419-1.152-2.571-2.572-2.571C380.997,412.147,379.849,413.299,379.849,414.719z M379.112,408.22
			c0.994-0.506,2.119-0.79,3.311-0.79c4.018,0,7.277,3.258,7.277,7.274c0,4.022-3.26,7.281-7.277,7.281
			c-3.994,0-7.232-3.217-7.277-7.199l0.004-10.773l3.963-2.766V408.22z"/>
		<polygon fill="#F78E1E" points="394.61,421.568 390.64,421.568 390.644,410.791 394.61,408.026 		"/>
		<polygon fill="#717073" points="318.202,412.92 314.847,415.255 318.202,421.568 313.694,421.568 311.556,417.552 
			309.702,418.835 309.702,421.61 305.728,421.61 305.728,404.099 309.702,401.271 309.702,413.981 318.202,408.062 		"/>
		<path fill="#717073" d="M369.829,414.705c0,0.732,0.588,1.319,1.32,1.319c0.729,0,1.318-0.587,1.318-1.319
			c0-0.727-0.59-1.32-1.318-1.32C370.417,413.385,369.829,413.978,369.829,414.705z"/>
		<path fill="#717073" d="M339.099,414.723c0,1.563,1.27,2.829,2.832,2.829c1.564,0,2.83-1.266,2.83-2.829s-1.266-2.833-2.83-2.833
			C340.368,411.89,339.099,413.159,339.099,414.723z M334.651,414.705c0-4.017,3.258-7.28,7.279-7.28s7.275,3.263,7.275,7.28
			c0,4.022-3.254,7.281-7.275,7.281S334.651,418.727,334.651,414.705z"/>
		<path fill="#717073" d="M326.435,407.425c4.023,0,7.281,3.263,7.281,7.28v6.864h-4.445v-6.864
			c-0.016-1.559-1.275-2.814-2.836-2.814c-1.557,0-2.824,1.255-2.83,2.81v6.868h-4.447V414.7
			C319.161,410.683,322.419,407.425,326.435,407.425z"/>
		<g>
			<path fill="#717073" d="M356.812,409.711c0,1.261,1.021,2.282,2.281,2.282c1.262,0,2.281-1.021,2.281-2.282
				c0-1.265-1.02-2.287-2.281-2.287C357.833,407.425,356.812,408.446,356.812,409.711z"/>
			<polygon fill="#717073" points="354.892,414.367 356.925,408.961 361.253,408.961 363.187,414.367 365.501,408.035 
				369.743,408.035 364.806,421.568 361.575,421.568 359.04,414.605 356.503,421.568 353.274,421.568 348.3,408.03 352.55,408.03 
							"/>
		</g>
	</g>
</g>
</svg>
